%TF.GenerationSoftware,KiCad,Pcbnew,(5.1.10)-1*%
%TF.CreationDate,2021-09-07T16:31:46+07:00*%
%TF.ProjectId,trialkb,74726961-6c6b-4622-9e6b-696361645f70,rev?*%
%TF.SameCoordinates,Original*%
%TF.FileFunction,Legend,Top*%
%TF.FilePolarity,Positive*%
%FSLAX46Y46*%
G04 Gerber Fmt 4.6, Leading zero omitted, Abs format (unit mm)*
G04 Created by KiCad (PCBNEW (5.1.10)-1) date 2021-09-07 16:31:46*
%MOMM*%
%LPD*%
G01*
G04 APERTURE LIST*
%ADD10C,0.300000*%
%ADD11C,1.750000*%
%ADD12C,3.987800*%
%ADD13O,1.700000X2.700000*%
G04 APERTURE END LIST*
D10*
X27583928Y-80641071D02*
X27583928Y-81641071D01*
X27583928Y-80783928D02*
X27655357Y-80712500D01*
X27798214Y-80641071D01*
X28012500Y-80641071D01*
X28155357Y-80712500D01*
X28226785Y-80855357D01*
X28226785Y-81641071D01*
X28798214Y-80641071D02*
X29155357Y-81641071D01*
X29512500Y-80641071D01*
X30083928Y-81641071D02*
X30083928Y-80641071D01*
X30083928Y-80783928D02*
X30155357Y-80712500D01*
X30298214Y-80641071D01*
X30512500Y-80641071D01*
X30655357Y-80712500D01*
X30726785Y-80855357D01*
X30726785Y-81641071D01*
X30726785Y-80855357D02*
X30798214Y-80712500D01*
X30941071Y-80641071D01*
X31155357Y-80641071D01*
X31298214Y-80712500D01*
X31369642Y-80855357D01*
X31369642Y-81641071D01*
X32083928Y-80641071D02*
X32083928Y-81641071D01*
X32083928Y-80783928D02*
X32155357Y-80712500D01*
X32298214Y-80641071D01*
X32512500Y-80641071D01*
X32655357Y-80712500D01*
X32726785Y-80855357D01*
X32726785Y-81641071D01*
X34083928Y-81641071D02*
X34083928Y-80141071D01*
X34083928Y-81569642D02*
X33941071Y-81641071D01*
X33655357Y-81641071D01*
X33512500Y-81569642D01*
X33441071Y-81498214D01*
X33369642Y-81355357D01*
X33369642Y-80926785D01*
X33441071Y-80783928D01*
X33512500Y-80712500D01*
X33655357Y-80641071D01*
X33941071Y-80641071D01*
X34083928Y-80712500D01*
X35941071Y-81069642D02*
X37083928Y-81069642D01*
X38726785Y-80641071D02*
X39298214Y-80641071D01*
X38941071Y-80141071D02*
X38941071Y-81426785D01*
X39012500Y-81569642D01*
X39155357Y-81641071D01*
X39298214Y-81641071D01*
X39798214Y-81641071D02*
X39798214Y-80641071D01*
X39798214Y-80926785D02*
X39869642Y-80783928D01*
X39941071Y-80712500D01*
X40083928Y-80641071D01*
X40226785Y-80641071D01*
X40726785Y-81641071D02*
X40726785Y-80641071D01*
X40726785Y-80141071D02*
X40655357Y-80212500D01*
X40726785Y-80283928D01*
X40798214Y-80212500D01*
X40726785Y-80141071D01*
X40726785Y-80283928D01*
X42083928Y-81641071D02*
X42083928Y-80855357D01*
X42012500Y-80712500D01*
X41869642Y-80641071D01*
X41583928Y-80641071D01*
X41441071Y-80712500D01*
X42083928Y-81569642D02*
X41941071Y-81641071D01*
X41583928Y-81641071D01*
X41441071Y-81569642D01*
X41369642Y-81426785D01*
X41369642Y-81283928D01*
X41441071Y-81141071D01*
X41583928Y-81069642D01*
X41941071Y-81069642D01*
X42083928Y-80998214D01*
X43012500Y-81641071D02*
X42869642Y-81569642D01*
X42798214Y-81426785D01*
X42798214Y-80141071D01*
X43583928Y-81641071D02*
X43583928Y-80141071D01*
X43726785Y-81069642D02*
X44155357Y-81641071D01*
X44155357Y-80641071D02*
X43583928Y-81212500D01*
X44798214Y-81641071D02*
X44798214Y-80141071D01*
X44798214Y-80712500D02*
X44941071Y-80641071D01*
X45226785Y-80641071D01*
X45369642Y-80712500D01*
X45441071Y-80783928D01*
X45512500Y-80926785D01*
X45512500Y-81355357D01*
X45441071Y-81498214D01*
X45369642Y-81569642D01*
X45226785Y-81641071D01*
X44941071Y-81641071D01*
X44798214Y-81569642D01*
%LPC*%
D11*
%TO.C,MX2*%
X78105000Y-74612500D03*
X67945000Y-74612500D03*
D12*
X73025000Y-74612500D03*
%TD*%
D13*
%TO.C,USB1*%
X27306250Y-47887500D03*
X34606250Y-47887500D03*
X34606250Y-52387500D03*
X27306250Y-52387500D03*
%TD*%
D11*
%TO.C,MX4*%
X97155000Y-74612500D03*
X86995000Y-74612500D03*
D12*
X92075000Y-74612500D03*
%TD*%
D11*
%TO.C,MX3*%
X97155000Y-55562500D03*
X86995000Y-55562500D03*
D12*
X92075000Y-55562500D03*
%TD*%
D11*
%TO.C,MX1*%
X78105000Y-55562500D03*
X67945000Y-55562500D03*
D12*
X73025000Y-55562500D03*
%TD*%
M02*
