%TF.GenerationSoftware,KiCad,Pcbnew,(5.1.10)-1*%
%TF.CreationDate,2021-09-07T16:31:46+07:00*%
%TF.ProjectId,trialkb,74726961-6c6b-4622-9e6b-696361645f70,rev?*%
%TF.SameCoordinates,Original*%
%TF.FileFunction,Copper,L2,Bot*%
%TF.FilePolarity,Positive*%
%FSLAX46Y46*%
G04 Gerber Fmt 4.6, Leading zero omitted, Abs format (unit mm)*
G04 Created by KiCad (PCBNEW (5.1.10)-1) date 2021-09-07 16:31:46*
%MOMM*%
%LPD*%
G01*
G04 APERTURE LIST*
%TA.AperFunction,SMDPad,CuDef*%
%ADD10R,1.800000X1.100000*%
%TD*%
%TA.AperFunction,ComponentPad*%
%ADD11C,2.250000*%
%TD*%
%TA.AperFunction,SMDPad,CuDef*%
%ADD12R,1.400000X1.200000*%
%TD*%
%TA.AperFunction,ComponentPad*%
%ADD13O,1.700000X2.700000*%
%TD*%
%TA.AperFunction,SMDPad,CuDef*%
%ADD14R,0.500000X2.250000*%
%TD*%
%TA.AperFunction,SMDPad,CuDef*%
%ADD15R,0.550000X1.500000*%
%TD*%
%TA.AperFunction,SMDPad,CuDef*%
%ADD16R,1.500000X0.550000*%
%TD*%
%TA.AperFunction,SMDPad,CuDef*%
%ADD17R,1.200000X0.900000*%
%TD*%
%TA.AperFunction,ViaPad*%
%ADD18C,0.800000*%
%TD*%
%TA.AperFunction,Conductor*%
%ADD19C,0.381000*%
%TD*%
%TA.AperFunction,Conductor*%
%ADD20C,0.254000*%
%TD*%
%TA.AperFunction,Conductor*%
%ADD21C,0.100000*%
%TD*%
G04 APERTURE END LIST*
D10*
%TO.P,SW1,4*%
%TO.N,N/C*%
X34056250Y-77256250D03*
%TO.P,SW1,3*%
X27856250Y-73556250D03*
%TO.P,SW1,2*%
%TO.N,Net-(R3-Pad2)*%
X34056250Y-73556250D03*
%TO.P,SW1,1*%
%TO.N,GND*%
X27856250Y-77256250D03*
%TD*%
D11*
%TO.P,MX2,1*%
%TO.N,COL0*%
X70525000Y-70612500D03*
%TA.AperFunction,ComponentPad*%
G36*
G01*
X68463688Y-72909850D02*
X68463683Y-72909845D01*
G75*
G02*
X68377655Y-71321183I751317J837345D01*
G01*
X69687657Y-69861183D01*
G75*
G02*
X71276319Y-69775155I837345J-751317D01*
G01*
X71276319Y-69775155D01*
G75*
G02*
X71362347Y-71363817I-751317J-837345D01*
G01*
X70052345Y-72823817D01*
G75*
G02*
X68463683Y-72909845I-837345J751317D01*
G01*
G37*
%TD.AperFunction*%
%TO.P,MX2,2*%
%TO.N,Net-(D2-Pad2)*%
X75565000Y-69532500D03*
%TA.AperFunction,ComponentPad*%
G36*
G01*
X75448483Y-71234895D02*
X75447597Y-71234834D01*
G75*
G02*
X74402666Y-70035097I77403J1122334D01*
G01*
X74442666Y-69455097D01*
G75*
G02*
X75642403Y-68410166I1122334J-77403D01*
G01*
X75642403Y-68410166D01*
G75*
G02*
X76687334Y-69609903I-77403J-1122334D01*
G01*
X76647334Y-70189903D01*
G75*
G02*
X75447597Y-71234834I-1122334J77403D01*
G01*
G37*
%TD.AperFunction*%
%TD*%
D12*
%TO.P,Y1,4*%
%TO.N,GND*%
X52206250Y-52331250D03*
%TO.P,Y1,3*%
%TO.N,Net-(C5-Pad1)*%
X50006250Y-52331250D03*
%TO.P,Y1,2*%
%TO.N,GND*%
X50006250Y-54031250D03*
%TO.P,Y1,1*%
%TO.N,Net-(C4-Pad1)*%
X52206250Y-54031250D03*
%TD*%
D13*
%TO.P,USB1,6*%
%TO.N,Net-(USB1-Pad6)*%
X27306250Y-47887500D03*
X34606250Y-47887500D03*
X34606250Y-52387500D03*
X27306250Y-52387500D03*
D14*
%TO.P,USB1,5*%
%TO.N,VCC*%
X29356250Y-52387500D03*
%TO.P,USB1,4*%
%TO.N,D-*%
X30156250Y-52387500D03*
%TO.P,USB1,3*%
%TO.N,D+*%
X30956250Y-52387500D03*
%TO.P,USB1,2*%
%TO.N,Net-(USB1-Pad2)*%
X31756250Y-52387500D03*
%TO.P,USB1,1*%
%TO.N,GND*%
X32556250Y-52387500D03*
%TD*%
D15*
%TO.P,U1,44*%
%TO.N,+5V*%
X47593750Y-72375000D03*
%TO.P,U1,43*%
%TO.N,GND*%
X48393750Y-72375000D03*
%TO.P,U1,42*%
%TO.N,Net-(U1-Pad42)*%
X49193750Y-72375000D03*
%TO.P,U1,41*%
%TO.N,Net-(U1-Pad41)*%
X49993750Y-72375000D03*
%TO.P,U1,40*%
%TO.N,Net-(U1-Pad40)*%
X50793750Y-72375000D03*
%TO.P,U1,39*%
%TO.N,Net-(U1-Pad39)*%
X51593750Y-72375000D03*
%TO.P,U1,38*%
%TO.N,Net-(U1-Pad38)*%
X52393750Y-72375000D03*
%TO.P,U1,37*%
%TO.N,Net-(U1-Pad37)*%
X53193750Y-72375000D03*
%TO.P,U1,36*%
%TO.N,Net-(U1-Pad36)*%
X53993750Y-72375000D03*
%TO.P,U1,35*%
%TO.N,GND*%
X54793750Y-72375000D03*
%TO.P,U1,34*%
%TO.N,+5V*%
X55593750Y-72375000D03*
D16*
%TO.P,U1,33*%
%TO.N,Net-(R4-Pad2)*%
X57293750Y-70675000D03*
%TO.P,U1,32*%
%TO.N,Net-(U1-Pad32)*%
X57293750Y-69875000D03*
%TO.P,U1,31*%
%TO.N,Net-(U1-Pad31)*%
X57293750Y-69075000D03*
%TO.P,U1,30*%
%TO.N,ROW1*%
X57293750Y-68275000D03*
%TO.P,U1,29*%
%TO.N,COL0*%
X57293750Y-67475000D03*
%TO.P,U1,28*%
%TO.N,COL1*%
X57293750Y-66675000D03*
%TO.P,U1,27*%
%TO.N,ROW0*%
X57293750Y-65875000D03*
%TO.P,U1,26*%
%TO.N,Net-(U1-Pad26)*%
X57293750Y-65075000D03*
%TO.P,U1,25*%
%TO.N,Net-(U1-Pad25)*%
X57293750Y-64275000D03*
%TO.P,U1,24*%
%TO.N,+5V*%
X57293750Y-63475000D03*
%TO.P,U1,23*%
%TO.N,GND*%
X57293750Y-62675000D03*
D15*
%TO.P,U1,22*%
%TO.N,Net-(U1-Pad22)*%
X55593750Y-60975000D03*
%TO.P,U1,21*%
%TO.N,Net-(U1-Pad21)*%
X54793750Y-60975000D03*
%TO.P,U1,20*%
%TO.N,Net-(U1-Pad20)*%
X53993750Y-60975000D03*
%TO.P,U1,19*%
%TO.N,Net-(U1-Pad19)*%
X53193750Y-60975000D03*
%TO.P,U1,18*%
%TO.N,Net-(U1-Pad18)*%
X52393750Y-60975000D03*
%TO.P,U1,17*%
%TO.N,Net-(C4-Pad1)*%
X51593750Y-60975000D03*
%TO.P,U1,16*%
%TO.N,Net-(C5-Pad1)*%
X50793750Y-60975000D03*
%TO.P,U1,15*%
%TO.N,GND*%
X49993750Y-60975000D03*
%TO.P,U1,14*%
%TO.N,+5V*%
X49193750Y-60975000D03*
%TO.P,U1,13*%
%TO.N,Net-(R3-Pad2)*%
X48393750Y-60975000D03*
%TO.P,U1,12*%
%TO.N,Net-(U1-Pad12)*%
X47593750Y-60975000D03*
D16*
%TO.P,U1,11*%
%TO.N,Net-(U1-Pad11)*%
X45893750Y-62675000D03*
%TO.P,U1,10*%
%TO.N,Net-(U1-Pad10)*%
X45893750Y-63475000D03*
%TO.P,U1,9*%
%TO.N,Net-(U1-Pad9)*%
X45893750Y-64275000D03*
%TO.P,U1,8*%
%TO.N,Net-(U1-Pad8)*%
X45893750Y-65075000D03*
%TO.P,U1,7*%
%TO.N,+5V*%
X45893750Y-65875000D03*
%TO.P,U1,6*%
%TO.N,Net-(C7-Pad1)*%
X45893750Y-66675000D03*
%TO.P,U1,5*%
%TO.N,GND*%
X45893750Y-67475000D03*
%TO.P,U1,4*%
%TO.N,Net-(R2-Pad1)*%
X45893750Y-68275000D03*
%TO.P,U1,3*%
%TO.N,Net-(R1-Pad1)*%
X45893750Y-69075000D03*
%TO.P,U1,2*%
%TO.N,+5V*%
X45893750Y-69875000D03*
%TO.P,U1,1*%
%TO.N,Net-(U1-Pad1)*%
X45893750Y-70675000D03*
%TD*%
%TO.P,R4,2*%
%TO.N,Net-(R4-Pad2)*%
%TA.AperFunction,SMDPad,CuDef*%
G36*
G01*
X61568751Y-71950000D02*
X60668749Y-71950000D01*
G75*
G02*
X60418750Y-71700001I0J249999D01*
G01*
X60418750Y-71174999D01*
G75*
G02*
X60668749Y-70925000I249999J0D01*
G01*
X61568751Y-70925000D01*
G75*
G02*
X61818750Y-71174999I0J-249999D01*
G01*
X61818750Y-71700001D01*
G75*
G02*
X61568751Y-71950000I-249999J0D01*
G01*
G37*
%TD.AperFunction*%
%TO.P,R4,1*%
%TO.N,GND*%
%TA.AperFunction,SMDPad,CuDef*%
G36*
G01*
X61568751Y-73775000D02*
X60668749Y-73775000D01*
G75*
G02*
X60418750Y-73525001I0J249999D01*
G01*
X60418750Y-72999999D01*
G75*
G02*
X60668749Y-72750000I249999J0D01*
G01*
X61568751Y-72750000D01*
G75*
G02*
X61818750Y-72999999I0J-249999D01*
G01*
X61818750Y-73525001D01*
G75*
G02*
X61568751Y-73775000I-249999J0D01*
G01*
G37*
%TD.AperFunction*%
%TD*%
%TO.P,R3,2*%
%TO.N,Net-(R3-Pad2)*%
%TA.AperFunction,SMDPad,CuDef*%
G36*
G01*
X36856249Y-56081250D02*
X37756251Y-56081250D01*
G75*
G02*
X38006250Y-56331249I0J-249999D01*
G01*
X38006250Y-56856251D01*
G75*
G02*
X37756251Y-57106250I-249999J0D01*
G01*
X36856249Y-57106250D01*
G75*
G02*
X36606250Y-56856251I0J249999D01*
G01*
X36606250Y-56331249D01*
G75*
G02*
X36856249Y-56081250I249999J0D01*
G01*
G37*
%TD.AperFunction*%
%TO.P,R3,1*%
%TO.N,+5V*%
%TA.AperFunction,SMDPad,CuDef*%
G36*
G01*
X36856249Y-54256250D02*
X37756251Y-54256250D01*
G75*
G02*
X38006250Y-54506249I0J-249999D01*
G01*
X38006250Y-55031251D01*
G75*
G02*
X37756251Y-55281250I-249999J0D01*
G01*
X36856249Y-55281250D01*
G75*
G02*
X36606250Y-55031251I0J249999D01*
G01*
X36606250Y-54506249D01*
G75*
G02*
X36856249Y-54256250I249999J0D01*
G01*
G37*
%TD.AperFunction*%
%TD*%
%TO.P,R2,2*%
%TO.N,D+*%
%TA.AperFunction,SMDPad,CuDef*%
G36*
G01*
X32993751Y-56868750D02*
X32093749Y-56868750D01*
G75*
G02*
X31843750Y-56618751I0J249999D01*
G01*
X31843750Y-56093749D01*
G75*
G02*
X32093749Y-55843750I249999J0D01*
G01*
X32993751Y-55843750D01*
G75*
G02*
X33243750Y-56093749I0J-249999D01*
G01*
X33243750Y-56618751D01*
G75*
G02*
X32993751Y-56868750I-249999J0D01*
G01*
G37*
%TD.AperFunction*%
%TO.P,R2,1*%
%TO.N,Net-(R2-Pad1)*%
%TA.AperFunction,SMDPad,CuDef*%
G36*
G01*
X32993751Y-58693750D02*
X32093749Y-58693750D01*
G75*
G02*
X31843750Y-58443751I0J249999D01*
G01*
X31843750Y-57918749D01*
G75*
G02*
X32093749Y-57668750I249999J0D01*
G01*
X32993751Y-57668750D01*
G75*
G02*
X33243750Y-57918749I0J-249999D01*
G01*
X33243750Y-58443751D01*
G75*
G02*
X32993751Y-58693750I-249999J0D01*
G01*
G37*
%TD.AperFunction*%
%TD*%
%TO.P,R1,2*%
%TO.N,D-*%
%TA.AperFunction,SMDPad,CuDef*%
G36*
G01*
X29818751Y-56868750D02*
X28918749Y-56868750D01*
G75*
G02*
X28668750Y-56618751I0J249999D01*
G01*
X28668750Y-56093749D01*
G75*
G02*
X28918749Y-55843750I249999J0D01*
G01*
X29818751Y-55843750D01*
G75*
G02*
X30068750Y-56093749I0J-249999D01*
G01*
X30068750Y-56618751D01*
G75*
G02*
X29818751Y-56868750I-249999J0D01*
G01*
G37*
%TD.AperFunction*%
%TO.P,R1,1*%
%TO.N,Net-(R1-Pad1)*%
%TA.AperFunction,SMDPad,CuDef*%
G36*
G01*
X29818751Y-58693750D02*
X28918749Y-58693750D01*
G75*
G02*
X28668750Y-58443751I0J249999D01*
G01*
X28668750Y-57918749D01*
G75*
G02*
X28918749Y-57668750I249999J0D01*
G01*
X29818751Y-57668750D01*
G75*
G02*
X30068750Y-57918749I0J-249999D01*
G01*
X30068750Y-58443751D01*
G75*
G02*
X29818751Y-58693750I-249999J0D01*
G01*
G37*
%TD.AperFunction*%
%TD*%
D11*
%TO.P,MX4,1*%
%TO.N,COL1*%
X89575000Y-70612500D03*
%TA.AperFunction,ComponentPad*%
G36*
G01*
X87513688Y-72909850D02*
X87513683Y-72909845D01*
G75*
G02*
X87427655Y-71321183I751317J837345D01*
G01*
X88737657Y-69861183D01*
G75*
G02*
X90326319Y-69775155I837345J-751317D01*
G01*
X90326319Y-69775155D01*
G75*
G02*
X90412347Y-71363817I-751317J-837345D01*
G01*
X89102345Y-72823817D01*
G75*
G02*
X87513683Y-72909845I-837345J751317D01*
G01*
G37*
%TD.AperFunction*%
%TO.P,MX4,2*%
%TO.N,Net-(D4-Pad2)*%
X94615000Y-69532500D03*
%TA.AperFunction,ComponentPad*%
G36*
G01*
X94498483Y-71234895D02*
X94497597Y-71234834D01*
G75*
G02*
X93452666Y-70035097I77403J1122334D01*
G01*
X93492666Y-69455097D01*
G75*
G02*
X94692403Y-68410166I1122334J-77403D01*
G01*
X94692403Y-68410166D01*
G75*
G02*
X95737334Y-69609903I-77403J-1122334D01*
G01*
X95697334Y-70189903D01*
G75*
G02*
X94497597Y-71234834I-1122334J77403D01*
G01*
G37*
%TD.AperFunction*%
%TD*%
%TO.P,MX3,1*%
%TO.N,COL1*%
X89575000Y-51562500D03*
%TA.AperFunction,ComponentPad*%
G36*
G01*
X87513688Y-53859850D02*
X87513683Y-53859845D01*
G75*
G02*
X87427655Y-52271183I751317J837345D01*
G01*
X88737657Y-50811183D01*
G75*
G02*
X90326319Y-50725155I837345J-751317D01*
G01*
X90326319Y-50725155D01*
G75*
G02*
X90412347Y-52313817I-751317J-837345D01*
G01*
X89102345Y-53773817D01*
G75*
G02*
X87513683Y-53859845I-837345J751317D01*
G01*
G37*
%TD.AperFunction*%
%TO.P,MX3,2*%
%TO.N,Net-(D3-Pad2)*%
X94615000Y-50482500D03*
%TA.AperFunction,ComponentPad*%
G36*
G01*
X94498483Y-52184895D02*
X94497597Y-52184834D01*
G75*
G02*
X93452666Y-50985097I77403J1122334D01*
G01*
X93492666Y-50405097D01*
G75*
G02*
X94692403Y-49360166I1122334J-77403D01*
G01*
X94692403Y-49360166D01*
G75*
G02*
X95737334Y-50559903I-77403J-1122334D01*
G01*
X95697334Y-51139903D01*
G75*
G02*
X94497597Y-52184834I-1122334J77403D01*
G01*
G37*
%TD.AperFunction*%
%TD*%
%TO.P,MX1,1*%
%TO.N,COL0*%
X70525000Y-51562500D03*
%TA.AperFunction,ComponentPad*%
G36*
G01*
X68463688Y-53859850D02*
X68463683Y-53859845D01*
G75*
G02*
X68377655Y-52271183I751317J837345D01*
G01*
X69687657Y-50811183D01*
G75*
G02*
X71276319Y-50725155I837345J-751317D01*
G01*
X71276319Y-50725155D01*
G75*
G02*
X71362347Y-52313817I-751317J-837345D01*
G01*
X70052345Y-53773817D01*
G75*
G02*
X68463683Y-53859845I-837345J751317D01*
G01*
G37*
%TD.AperFunction*%
%TO.P,MX1,2*%
%TO.N,Net-(D1-Pad2)*%
X75565000Y-50482500D03*
%TA.AperFunction,ComponentPad*%
G36*
G01*
X75448483Y-52184895D02*
X75447597Y-52184834D01*
G75*
G02*
X74402666Y-50985097I77403J1122334D01*
G01*
X74442666Y-50405097D01*
G75*
G02*
X75642403Y-49360166I1122334J-77403D01*
G01*
X75642403Y-49360166D01*
G75*
G02*
X76687334Y-50559903I-77403J-1122334D01*
G01*
X76647334Y-51139903D01*
G75*
G02*
X75447597Y-52184834I-1122334J77403D01*
G01*
G37*
%TD.AperFunction*%
%TD*%
%TO.P,F1,2*%
%TO.N,VCC*%
%TA.AperFunction,SMDPad,CuDef*%
G36*
G01*
X29200000Y-64312500D02*
X27950000Y-64312500D01*
G75*
G02*
X27700000Y-64062500I0J250000D01*
G01*
X27700000Y-63312500D01*
G75*
G02*
X27950000Y-63062500I250000J0D01*
G01*
X29200000Y-63062500D01*
G75*
G02*
X29450000Y-63312500I0J-250000D01*
G01*
X29450000Y-64062500D01*
G75*
G02*
X29200000Y-64312500I-250000J0D01*
G01*
G37*
%TD.AperFunction*%
%TO.P,F1,1*%
%TO.N,+5V*%
%TA.AperFunction,SMDPad,CuDef*%
G36*
G01*
X29200000Y-67112500D02*
X27950000Y-67112500D01*
G75*
G02*
X27700000Y-66862500I0J250000D01*
G01*
X27700000Y-66112500D01*
G75*
G02*
X27950000Y-65862500I250000J0D01*
G01*
X29200000Y-65862500D01*
G75*
G02*
X29450000Y-66112500I0J-250000D01*
G01*
X29450000Y-66862500D01*
G75*
G02*
X29200000Y-67112500I-250000J0D01*
G01*
G37*
%TD.AperFunction*%
%TD*%
D17*
%TO.P,D4,2*%
%TO.N,Net-(D4-Pad2)*%
X100012500Y-72962500D03*
%TO.P,D4,1*%
%TO.N,ROW1*%
X100012500Y-76262500D03*
%TD*%
%TO.P,D3,2*%
%TO.N,Net-(D3-Pad2)*%
X100012500Y-53912500D03*
%TO.P,D3,1*%
%TO.N,ROW0*%
X100012500Y-57212500D03*
%TD*%
%TO.P,D2,2*%
%TO.N,Net-(D2-Pad2)*%
X80962500Y-72962500D03*
%TO.P,D2,1*%
%TO.N,ROW1*%
X80962500Y-76262500D03*
%TD*%
%TO.P,D1,2*%
%TO.N,Net-(D1-Pad2)*%
X80962500Y-53912500D03*
%TO.P,D1,1*%
%TO.N,ROW0*%
X80962500Y-57212500D03*
%TD*%
%TO.P,C7,2*%
%TO.N,GND*%
%TA.AperFunction,SMDPad,CuDef*%
G36*
G01*
X40187500Y-65406250D02*
X40187500Y-66356250D01*
G75*
G02*
X39937500Y-66606250I-250000J0D01*
G01*
X39437500Y-66606250D01*
G75*
G02*
X39187500Y-66356250I0J250000D01*
G01*
X39187500Y-65406250D01*
G75*
G02*
X39437500Y-65156250I250000J0D01*
G01*
X39937500Y-65156250D01*
G75*
G02*
X40187500Y-65406250I0J-250000D01*
G01*
G37*
%TD.AperFunction*%
%TO.P,C7,1*%
%TO.N,Net-(C7-Pad1)*%
%TA.AperFunction,SMDPad,CuDef*%
G36*
G01*
X42087500Y-65406250D02*
X42087500Y-66356250D01*
G75*
G02*
X41837500Y-66606250I-250000J0D01*
G01*
X41337500Y-66606250D01*
G75*
G02*
X41087500Y-66356250I0J250000D01*
G01*
X41087500Y-65406250D01*
G75*
G02*
X41337500Y-65156250I250000J0D01*
G01*
X41837500Y-65156250D01*
G75*
G02*
X42087500Y-65406250I0J-250000D01*
G01*
G37*
%TD.AperFunction*%
%TD*%
%TO.P,C6,2*%
%TO.N,GND*%
%TA.AperFunction,SMDPad,CuDef*%
G36*
G01*
X40800000Y-72681250D02*
X41750000Y-72681250D01*
G75*
G02*
X42000000Y-72931250I0J-250000D01*
G01*
X42000000Y-73431250D01*
G75*
G02*
X41750000Y-73681250I-250000J0D01*
G01*
X40800000Y-73681250D01*
G75*
G02*
X40550000Y-73431250I0J250000D01*
G01*
X40550000Y-72931250D01*
G75*
G02*
X40800000Y-72681250I250000J0D01*
G01*
G37*
%TD.AperFunction*%
%TO.P,C6,1*%
%TO.N,+5V*%
%TA.AperFunction,SMDPad,CuDef*%
G36*
G01*
X40800000Y-70781250D02*
X41750000Y-70781250D01*
G75*
G02*
X42000000Y-71031250I0J-250000D01*
G01*
X42000000Y-71531250D01*
G75*
G02*
X41750000Y-71781250I-250000J0D01*
G01*
X40800000Y-71781250D01*
G75*
G02*
X40550000Y-71531250I0J250000D01*
G01*
X40550000Y-71031250D01*
G75*
G02*
X40800000Y-70781250I250000J0D01*
G01*
G37*
%TD.AperFunction*%
%TD*%
%TO.P,C5,2*%
%TO.N,GND*%
%TA.AperFunction,SMDPad,CuDef*%
G36*
G01*
X46356250Y-53475000D02*
X47306250Y-53475000D01*
G75*
G02*
X47556250Y-53725000I0J-250000D01*
G01*
X47556250Y-54225000D01*
G75*
G02*
X47306250Y-54475000I-250000J0D01*
G01*
X46356250Y-54475000D01*
G75*
G02*
X46106250Y-54225000I0J250000D01*
G01*
X46106250Y-53725000D01*
G75*
G02*
X46356250Y-53475000I250000J0D01*
G01*
G37*
%TD.AperFunction*%
%TO.P,C5,1*%
%TO.N,Net-(C5-Pad1)*%
%TA.AperFunction,SMDPad,CuDef*%
G36*
G01*
X46356250Y-51575000D02*
X47306250Y-51575000D01*
G75*
G02*
X47556250Y-51825000I0J-250000D01*
G01*
X47556250Y-52325000D01*
G75*
G02*
X47306250Y-52575000I-250000J0D01*
G01*
X46356250Y-52575000D01*
G75*
G02*
X46106250Y-52325000I0J250000D01*
G01*
X46106250Y-51825000D01*
G75*
G02*
X46356250Y-51575000I250000J0D01*
G01*
G37*
%TD.AperFunction*%
%TD*%
%TO.P,C4,2*%
%TO.N,GND*%
%TA.AperFunction,SMDPad,CuDef*%
G36*
G01*
X55243750Y-52575000D02*
X54293750Y-52575000D01*
G75*
G02*
X54043750Y-52325000I0J250000D01*
G01*
X54043750Y-51825000D01*
G75*
G02*
X54293750Y-51575000I250000J0D01*
G01*
X55243750Y-51575000D01*
G75*
G02*
X55493750Y-51825000I0J-250000D01*
G01*
X55493750Y-52325000D01*
G75*
G02*
X55243750Y-52575000I-250000J0D01*
G01*
G37*
%TD.AperFunction*%
%TO.P,C4,1*%
%TO.N,Net-(C4-Pad1)*%
%TA.AperFunction,SMDPad,CuDef*%
G36*
G01*
X55243750Y-54475000D02*
X54293750Y-54475000D01*
G75*
G02*
X54043750Y-54225000I0J250000D01*
G01*
X54043750Y-53725000D01*
G75*
G02*
X54293750Y-53475000I250000J0D01*
G01*
X55243750Y-53475000D01*
G75*
G02*
X55493750Y-53725000I0J-250000D01*
G01*
X55493750Y-54225000D01*
G75*
G02*
X55243750Y-54475000I-250000J0D01*
G01*
G37*
%TD.AperFunction*%
%TD*%
%TO.P,C3,1*%
%TO.N,+5V*%
%TA.AperFunction,SMDPad,CuDef*%
G36*
G01*
X42543750Y-57650000D02*
X41593750Y-57650000D01*
G75*
G02*
X41343750Y-57400000I0J250000D01*
G01*
X41343750Y-56900000D01*
G75*
G02*
X41593750Y-56650000I250000J0D01*
G01*
X42543750Y-56650000D01*
G75*
G02*
X42793750Y-56900000I0J-250000D01*
G01*
X42793750Y-57400000D01*
G75*
G02*
X42543750Y-57650000I-250000J0D01*
G01*
G37*
%TD.AperFunction*%
%TO.P,C3,2*%
%TO.N,GND*%
%TA.AperFunction,SMDPad,CuDef*%
G36*
G01*
X42543750Y-55750000D02*
X41593750Y-55750000D01*
G75*
G02*
X41343750Y-55500000I0J250000D01*
G01*
X41343750Y-55000000D01*
G75*
G02*
X41593750Y-54750000I250000J0D01*
G01*
X42543750Y-54750000D01*
G75*
G02*
X42793750Y-55000000I0J-250000D01*
G01*
X42793750Y-55500000D01*
G75*
G02*
X42543750Y-55750000I-250000J0D01*
G01*
G37*
%TD.AperFunction*%
%TD*%
%TO.P,C2,2*%
%TO.N,GND*%
%TA.AperFunction,SMDPad,CuDef*%
G36*
G01*
X61593750Y-61306250D02*
X60643750Y-61306250D01*
G75*
G02*
X60393750Y-61056250I0J250000D01*
G01*
X60393750Y-60556250D01*
G75*
G02*
X60643750Y-60306250I250000J0D01*
G01*
X61593750Y-60306250D01*
G75*
G02*
X61843750Y-60556250I0J-250000D01*
G01*
X61843750Y-61056250D01*
G75*
G02*
X61593750Y-61306250I-250000J0D01*
G01*
G37*
%TD.AperFunction*%
%TO.P,C2,1*%
%TO.N,+5V*%
%TA.AperFunction,SMDPad,CuDef*%
G36*
G01*
X61593750Y-63206250D02*
X60643750Y-63206250D01*
G75*
G02*
X60393750Y-62956250I0J250000D01*
G01*
X60393750Y-62456250D01*
G75*
G02*
X60643750Y-62206250I250000J0D01*
G01*
X61593750Y-62206250D01*
G75*
G02*
X61843750Y-62456250I0J-250000D01*
G01*
X61843750Y-62956250D01*
G75*
G02*
X61593750Y-63206250I-250000J0D01*
G01*
G37*
%TD.AperFunction*%
%TD*%
%TO.P,C1,2*%
%TO.N,GND*%
%TA.AperFunction,SMDPad,CuDef*%
G36*
G01*
X56543750Y-76518750D02*
X56543750Y-77468750D01*
G75*
G02*
X56293750Y-77718750I-250000J0D01*
G01*
X55793750Y-77718750D01*
G75*
G02*
X55543750Y-77468750I0J250000D01*
G01*
X55543750Y-76518750D01*
G75*
G02*
X55793750Y-76268750I250000J0D01*
G01*
X56293750Y-76268750D01*
G75*
G02*
X56543750Y-76518750I0J-250000D01*
G01*
G37*
%TD.AperFunction*%
%TO.P,C1,1*%
%TO.N,+5V*%
%TA.AperFunction,SMDPad,CuDef*%
G36*
G01*
X58443750Y-76518750D02*
X58443750Y-77468750D01*
G75*
G02*
X58193750Y-77718750I-250000J0D01*
G01*
X57693750Y-77718750D01*
G75*
G02*
X57443750Y-77468750I0J250000D01*
G01*
X57443750Y-76518750D01*
G75*
G02*
X57693750Y-76268750I250000J0D01*
G01*
X58193750Y-76268750D01*
G75*
G02*
X58443750Y-76518750I0J-250000D01*
G01*
G37*
%TD.AperFunction*%
%TD*%
D18*
%TO.N,+5V*%
X62706250Y-62706250D03*
X59531250Y-76993750D03*
X42862500Y-72868750D03*
X42862500Y-65881250D03*
X40481250Y-55562500D03*
%TO.N,Net-(R3-Pad2)*%
X36512500Y-57943750D03*
X36512500Y-73025000D03*
%TD*%
D19*
%TO.N,GND*%
X42068750Y-55250000D02*
X43343750Y-55250000D01*
X43343750Y-55250000D02*
X44450000Y-56356250D01*
X49993750Y-59822328D02*
X49993750Y-60975000D01*
X46527672Y-56356250D02*
X49993750Y-59822328D01*
X44450000Y-56356250D02*
X46527672Y-56356250D01*
X50309152Y-54031250D02*
X50006250Y-54031250D01*
X52206250Y-52331250D02*
X52009152Y-52331250D01*
D20*
X51894852Y-52331250D02*
X52206250Y-52331250D01*
X50194852Y-54031250D02*
X51894852Y-52331250D01*
X50006250Y-54031250D02*
X50194852Y-54031250D01*
X43372770Y-67475000D02*
X45893750Y-67475000D01*
X43120760Y-67727010D02*
X43372770Y-67475000D01*
X41533260Y-67727010D02*
X43120760Y-67727010D01*
X40481250Y-66675000D02*
X41533260Y-67727010D01*
X41275000Y-67468750D02*
X41533260Y-67727010D01*
X35718750Y-67468750D02*
X41275000Y-67468750D01*
X34131250Y-65881250D02*
X35718750Y-67468750D01*
X34131250Y-55562500D02*
X34131250Y-65881250D01*
X32556250Y-53987500D02*
X34131250Y-55562500D01*
X32556250Y-52387500D02*
X32556250Y-53987500D01*
X40481250Y-66675000D02*
X39687500Y-65881250D01*
X49993750Y-61979000D02*
X52308500Y-64293750D01*
X49993750Y-60975000D02*
X49993750Y-61979000D01*
X52308500Y-64293750D02*
X54768750Y-64293750D01*
X56387500Y-62675000D02*
X57293750Y-62675000D01*
X54768750Y-64293750D02*
X56387500Y-62675000D01*
X54768750Y-72350000D02*
X54793750Y-72375000D01*
X54768750Y-64293750D02*
X54768750Y-69056250D01*
X54768750Y-69056250D02*
X48418750Y-69056250D01*
X54768750Y-69056250D02*
X54768750Y-72350000D01*
X48418750Y-72350000D02*
X48393750Y-72375000D01*
X48418750Y-69056250D02*
X48418750Y-72350000D01*
X46837500Y-67475000D02*
X45893750Y-67475000D01*
X48418750Y-69056250D02*
X46837500Y-67475000D01*
X61118750Y-73262500D02*
X61118750Y-77787500D01*
X61118750Y-77787500D02*
X59531250Y-79375000D01*
X59531250Y-79375000D02*
X56356250Y-79375000D01*
X56356250Y-77306250D02*
X56043750Y-76993750D01*
X56356250Y-79375000D02*
X56356250Y-77306250D01*
X54793750Y-75743750D02*
X54793750Y-72375000D01*
X56043750Y-76993750D02*
X54793750Y-75743750D01*
X59162500Y-60806250D02*
X57293750Y-62675000D01*
X61118750Y-60806250D02*
X59162500Y-60806250D01*
X41275000Y-73181250D02*
X43500000Y-75406250D01*
X43500000Y-75406250D02*
X46831250Y-75406250D01*
X48393750Y-73843750D02*
X48393750Y-72375000D01*
X46831250Y-75406250D02*
X48393750Y-73843750D01*
X52262500Y-52387500D02*
X52206250Y-52331250D01*
X49993750Y-57137500D02*
X49993750Y-60975000D01*
X46831250Y-53975000D02*
X49993750Y-57137500D01*
X46037500Y-53975000D02*
X46831250Y-53975000D01*
X45243750Y-53181250D02*
X46037500Y-53975000D01*
X45243750Y-51593750D02*
X45243750Y-53181250D01*
X46037500Y-50800000D02*
X45243750Y-51593750D01*
X50675000Y-50800000D02*
X46037500Y-50800000D01*
X52206250Y-52331250D02*
X50675000Y-50800000D01*
X54512500Y-52331250D02*
X54768750Y-52075000D01*
X52206250Y-52331250D02*
X54512500Y-52331250D01*
X27856250Y-77256250D02*
X27250000Y-77256250D01*
X27250000Y-77256250D02*
X26193750Y-76200000D01*
X26193750Y-73180148D02*
X27142648Y-72231250D01*
X26193750Y-76200000D02*
X26193750Y-73180148D01*
X27142648Y-72231250D02*
X38893750Y-72231250D01*
X39843750Y-73181250D02*
X41275000Y-73181250D01*
X38893750Y-72231250D02*
X39843750Y-73181250D01*
D19*
%TO.N,+5V*%
X46499750Y-57150000D02*
X42068750Y-57150000D01*
X49193750Y-59844000D02*
X46499750Y-57150000D01*
X49193750Y-60975000D02*
X49193750Y-59844000D01*
D20*
X47593750Y-72375000D02*
X47593750Y-73056250D01*
X37306250Y-54768750D02*
X38100000Y-54768750D01*
X40481250Y-57150000D02*
X42068750Y-57150000D01*
X57943750Y-76993750D02*
X55562500Y-74612500D01*
X55593750Y-74581250D02*
X55593750Y-72375000D01*
X55562500Y-74612500D02*
X55593750Y-74581250D01*
X60350000Y-63475000D02*
X57293750Y-63475000D01*
X61118750Y-62706250D02*
X60350000Y-63475000D01*
X61118750Y-62706250D02*
X62706250Y-62706250D01*
X59531250Y-76993750D02*
X57943750Y-76993750D01*
X41275000Y-71281250D02*
X42862500Y-72868750D01*
X42862500Y-73818750D02*
X43656250Y-74612500D01*
X43656250Y-74612500D02*
X46831250Y-74612500D01*
X47593750Y-73850000D02*
X47593750Y-72375000D01*
X46831250Y-74612500D02*
X47593750Y-73850000D01*
X45080148Y-69875000D02*
X45893750Y-69875000D01*
X42862500Y-72092648D02*
X45080148Y-69875000D01*
X42862500Y-73025000D02*
X42862500Y-72092648D01*
X42862500Y-72868750D02*
X42862500Y-73025000D01*
X42862500Y-73025000D02*
X42862500Y-73818750D01*
X42868750Y-65875000D02*
X42862500Y-65881250D01*
X45893750Y-65875000D02*
X42868750Y-65875000D01*
X40481250Y-55562500D02*
X38893750Y-55562500D01*
X38893750Y-55562500D02*
X40481250Y-57150000D01*
X38100000Y-54768750D02*
X38893750Y-55562500D01*
%TO.N,Net-(C5-Pad1)*%
X49950000Y-52387500D02*
X50006250Y-52331250D01*
%TO.N,Net-(C4-Pad1)*%
X51593750Y-54643750D02*
X51885217Y-54352283D01*
X51593750Y-60975000D02*
X51593750Y-54643750D01*
X52462500Y-54287500D02*
X52206250Y-54031250D01*
X54712500Y-54031250D02*
X54768750Y-53975000D01*
X52206250Y-54031250D02*
X54712500Y-54031250D01*
%TO.N,Net-(C5-Pad1)*%
X50138057Y-52841510D02*
X50404010Y-52575557D01*
X49307388Y-52841510D02*
X50138057Y-52841510D01*
X48418750Y-53730148D02*
X49307388Y-52841510D01*
X48418750Y-54332352D02*
X48418750Y-53730148D01*
X50793750Y-56707352D02*
X48418750Y-54332352D01*
X50404010Y-52575557D02*
X50404010Y-52575556D01*
X50793750Y-60975000D02*
X50793750Y-56707352D01*
X49750000Y-52075000D02*
X50006250Y-52331250D01*
X46831250Y-52075000D02*
X49750000Y-52075000D01*
%TO.N,Net-(C7-Pad1)*%
X42381250Y-66675000D02*
X45893750Y-66675000D01*
X42381250Y-66675000D02*
X41587500Y-65881250D01*
%TO.N,Net-(D1-Pad2)*%
X78112500Y-51062500D02*
X80962500Y-53912500D01*
X75525000Y-51062500D02*
X78112500Y-51062500D01*
%TO.N,ROW0*%
X80962500Y-57212500D02*
X82487500Y-58737500D01*
X98487500Y-58737500D02*
X100012500Y-57212500D01*
X82487500Y-58737500D02*
X98487500Y-58737500D01*
X72300000Y-65875000D02*
X57293750Y-65875000D01*
X80962500Y-57212500D02*
X72300000Y-65875000D01*
%TO.N,Net-(D2-Pad2)*%
X78112500Y-70112500D02*
X80962500Y-72962500D01*
X75525000Y-70112500D02*
X78112500Y-70112500D01*
%TO.N,ROW1*%
X80962500Y-76262500D02*
X82487500Y-77787500D01*
X98487500Y-77787500D02*
X100012500Y-76262500D01*
X82487500Y-77787500D02*
X98487500Y-77787500D01*
X59484768Y-68275000D02*
X61059768Y-69850000D01*
X57293750Y-68275000D02*
X59484768Y-68275000D01*
X61059768Y-69850000D02*
X64293750Y-69850000D01*
X64293750Y-72740212D02*
X65881250Y-74327712D01*
X64293750Y-69850000D02*
X64293750Y-72740212D01*
X65881250Y-74327712D02*
X65881250Y-76200000D01*
X65881250Y-76200000D02*
X67468750Y-77787500D01*
X79437500Y-77787500D02*
X80962500Y-76262500D01*
X67468750Y-77787500D02*
X79437500Y-77787500D01*
%TO.N,Net-(D3-Pad2)*%
X97162500Y-51062500D02*
X100012500Y-53912500D01*
X94575000Y-51062500D02*
X97162500Y-51062500D01*
%TO.N,Net-(D4-Pad2)*%
X97162500Y-70112500D02*
X100012500Y-72962500D01*
X94575000Y-70112500D02*
X97162500Y-70112500D01*
%TO.N,VCC*%
X28575000Y-63687500D02*
X28575000Y-60325000D01*
X28575000Y-60325000D02*
X27781250Y-59531250D01*
X29356250Y-53766500D02*
X29356250Y-52387500D01*
X27781250Y-55341500D02*
X29356250Y-53766500D01*
X27781250Y-59531250D02*
X27781250Y-55341500D01*
%TO.N,COL0*%
X69215000Y-72072500D02*
X69215000Y-71596250D01*
X57293750Y-67475000D02*
X69856250Y-67475000D01*
X69856250Y-67475000D02*
X70643750Y-68262500D01*
X70643750Y-70493750D02*
X70525000Y-70612500D01*
X70643750Y-68262500D02*
X70643750Y-70493750D01*
%TO.N,COL1*%
X82867500Y-66675000D02*
X88265000Y-72072500D01*
X57293750Y-66675000D02*
X82867500Y-66675000D01*
%TO.N,D-*%
X30156250Y-52387500D02*
X30156250Y-53981250D01*
X29368750Y-54768750D02*
X29368750Y-56356250D01*
X30156250Y-53981250D02*
X29368750Y-54768750D01*
%TO.N,Net-(R1-Pad1)*%
X35778518Y-69075000D02*
X30956250Y-64252732D01*
X45893750Y-69075000D02*
X35778518Y-69075000D01*
X30956250Y-59768750D02*
X29368750Y-58181250D01*
X30956250Y-64252732D02*
X30956250Y-59768750D01*
%TO.N,D+*%
X30956250Y-52387500D02*
X30956250Y-53975000D01*
X30956250Y-53975000D02*
X31750000Y-54768750D01*
X31750000Y-55562500D02*
X32543750Y-56356250D01*
X31750000Y-54768750D02*
X31750000Y-55562500D01*
%TO.N,Net-(R2-Pad1)*%
X32543750Y-58181250D02*
X32543750Y-58737500D01*
X32543750Y-58737500D02*
X31750000Y-59531250D01*
X31750000Y-59531250D02*
X31750000Y-64293750D01*
X35731250Y-68275000D02*
X45893750Y-68275000D01*
X31750000Y-64293750D02*
X35731250Y-68275000D01*
%TO.N,Net-(R3-Pad2)*%
X37306250Y-56593750D02*
X40243750Y-59531250D01*
X48393750Y-60161398D02*
X48393750Y-60975000D01*
X47763602Y-59531250D02*
X48393750Y-60161398D01*
X40243750Y-59531250D02*
X47763602Y-59531250D01*
X37306250Y-56593750D02*
X37135499Y-56422999D01*
X37306250Y-57150000D02*
X36512500Y-57943750D01*
X37306250Y-56593750D02*
X37306250Y-57150000D01*
X34587500Y-73025000D02*
X34056250Y-73556250D01*
X36512500Y-73025000D02*
X34587500Y-73025000D01*
%TO.N,Net-(R4-Pad2)*%
X61118750Y-71437500D02*
X59531250Y-71437500D01*
X58768750Y-70675000D02*
X57293750Y-70675000D01*
X59531250Y-71437500D02*
X58768750Y-70675000D01*
%TD*%
%TO.N,GND*%
X50067565Y-62176185D02*
X50164256Y-62255537D01*
X50187417Y-62267917D01*
X50279500Y-62360000D01*
X50393087Y-62350454D01*
X50394268Y-62350812D01*
X50518750Y-62363072D01*
X51068750Y-62363072D01*
X51193232Y-62350812D01*
X51193750Y-62350655D01*
X51194268Y-62350812D01*
X51318750Y-62363072D01*
X51868750Y-62363072D01*
X51993232Y-62350812D01*
X51993750Y-62350655D01*
X51994268Y-62350812D01*
X52118750Y-62363072D01*
X52668750Y-62363072D01*
X52793232Y-62350812D01*
X52793750Y-62350655D01*
X52794268Y-62350812D01*
X52918750Y-62363072D01*
X53468750Y-62363072D01*
X53593232Y-62350812D01*
X53593750Y-62350655D01*
X53594268Y-62350812D01*
X53718750Y-62363072D01*
X54268750Y-62363072D01*
X54393232Y-62350812D01*
X54393750Y-62350655D01*
X54394268Y-62350812D01*
X54518750Y-62363072D01*
X55068750Y-62363072D01*
X55193232Y-62350812D01*
X55193750Y-62350655D01*
X55194268Y-62350812D01*
X55318750Y-62363072D01*
X55868750Y-62363072D01*
X55911302Y-62358881D01*
X55908750Y-62389250D01*
X56067500Y-62548000D01*
X56229250Y-62548000D01*
X56229250Y-62648085D01*
X56189256Y-62669463D01*
X56092565Y-62748815D01*
X56013213Y-62845506D01*
X56000833Y-62868667D01*
X55908750Y-62960750D01*
X55918296Y-63074337D01*
X55917938Y-63075518D01*
X55905678Y-63200000D01*
X55905678Y-63750000D01*
X55917938Y-63874482D01*
X55918095Y-63875000D01*
X55917938Y-63875518D01*
X55905678Y-64000000D01*
X55905678Y-64550000D01*
X55917938Y-64674482D01*
X55918095Y-64675000D01*
X55917938Y-64675518D01*
X55905678Y-64800000D01*
X55905678Y-65350000D01*
X55917938Y-65474482D01*
X55918095Y-65475000D01*
X55917938Y-65475518D01*
X55905678Y-65600000D01*
X55905678Y-66150000D01*
X55917938Y-66274482D01*
X55918095Y-66275000D01*
X55917938Y-66275518D01*
X55905678Y-66400000D01*
X55905678Y-66950000D01*
X55917938Y-67074482D01*
X55918095Y-67075000D01*
X55917938Y-67075518D01*
X55905678Y-67200000D01*
X55905678Y-67750000D01*
X55917938Y-67874482D01*
X55918095Y-67875000D01*
X55917938Y-67875518D01*
X55905678Y-68000000D01*
X55905678Y-68550000D01*
X55917938Y-68674482D01*
X55918095Y-68675000D01*
X55917938Y-68675518D01*
X55905678Y-68800000D01*
X55905678Y-69350000D01*
X55917938Y-69474482D01*
X55918095Y-69475000D01*
X55917938Y-69475518D01*
X55905678Y-69600000D01*
X55905678Y-70150000D01*
X55917938Y-70274482D01*
X55918095Y-70275000D01*
X55917938Y-70275518D01*
X55905678Y-70400000D01*
X55905678Y-70950000D01*
X55909712Y-70990962D01*
X55868750Y-70986928D01*
X55318750Y-70986928D01*
X55194268Y-70999188D01*
X55193087Y-70999546D01*
X55079500Y-70990000D01*
X54987417Y-71082083D01*
X54964256Y-71094463D01*
X54867565Y-71173815D01*
X54793750Y-71263759D01*
X54719935Y-71173815D01*
X54623244Y-71094463D01*
X54600083Y-71082083D01*
X54508000Y-70990000D01*
X54394413Y-70999546D01*
X54393232Y-70999188D01*
X54268750Y-70986928D01*
X53718750Y-70986928D01*
X53594268Y-70999188D01*
X53593750Y-70999345D01*
X53593232Y-70999188D01*
X53468750Y-70986928D01*
X52918750Y-70986928D01*
X52794268Y-70999188D01*
X52793750Y-70999345D01*
X52793232Y-70999188D01*
X52668750Y-70986928D01*
X52118750Y-70986928D01*
X51994268Y-70999188D01*
X51993750Y-70999345D01*
X51993232Y-70999188D01*
X51868750Y-70986928D01*
X51318750Y-70986928D01*
X51194268Y-70999188D01*
X51193750Y-70999345D01*
X51193232Y-70999188D01*
X51068750Y-70986928D01*
X50518750Y-70986928D01*
X50394268Y-70999188D01*
X50393750Y-70999345D01*
X50393232Y-70999188D01*
X50268750Y-70986928D01*
X49718750Y-70986928D01*
X49594268Y-70999188D01*
X49593750Y-70999345D01*
X49593232Y-70999188D01*
X49468750Y-70986928D01*
X48918750Y-70986928D01*
X48794268Y-70999188D01*
X48793087Y-70999546D01*
X48679500Y-70990000D01*
X48587417Y-71082083D01*
X48564256Y-71094463D01*
X48467565Y-71173815D01*
X48393750Y-71263759D01*
X48319935Y-71173815D01*
X48223244Y-71094463D01*
X48200083Y-71082083D01*
X48108000Y-70990000D01*
X47994413Y-70999546D01*
X47993232Y-70999188D01*
X47868750Y-70986928D01*
X47318750Y-70986928D01*
X47277788Y-70990962D01*
X47281822Y-70950000D01*
X47281822Y-70400000D01*
X47269562Y-70275518D01*
X47269405Y-70275000D01*
X47269562Y-70274482D01*
X47281822Y-70150000D01*
X47281822Y-69600000D01*
X47269562Y-69475518D01*
X47269405Y-69475000D01*
X47269562Y-69474482D01*
X47281822Y-69350000D01*
X47281822Y-68800000D01*
X47269562Y-68675518D01*
X47269405Y-68675000D01*
X47269562Y-68674482D01*
X47281822Y-68550000D01*
X47281822Y-68000000D01*
X47269562Y-67875518D01*
X47269204Y-67874337D01*
X47278750Y-67760750D01*
X47186667Y-67668667D01*
X47174287Y-67645506D01*
X47094935Y-67548815D01*
X47004991Y-67475000D01*
X47094935Y-67401185D01*
X47174287Y-67304494D01*
X47186667Y-67281333D01*
X47278750Y-67189250D01*
X47269204Y-67075663D01*
X47269562Y-67074482D01*
X47281822Y-66950000D01*
X47281822Y-66400000D01*
X47269562Y-66275518D01*
X47269405Y-66275000D01*
X47269562Y-66274482D01*
X47281822Y-66150000D01*
X47281822Y-65600000D01*
X47269562Y-65475518D01*
X47269405Y-65475000D01*
X47269562Y-65474482D01*
X47281822Y-65350000D01*
X47281822Y-64800000D01*
X47269562Y-64675518D01*
X47269405Y-64675000D01*
X47269562Y-64674482D01*
X47281822Y-64550000D01*
X47281822Y-64000000D01*
X47269562Y-63875518D01*
X47269405Y-63875000D01*
X47269562Y-63874482D01*
X47281822Y-63750000D01*
X47281822Y-63200000D01*
X47269562Y-63075518D01*
X47269405Y-63075000D01*
X47269562Y-63074482D01*
X47281822Y-62950000D01*
X47281822Y-62400000D01*
X47277788Y-62359038D01*
X47318750Y-62363072D01*
X47868750Y-62363072D01*
X47993232Y-62350812D01*
X47993750Y-62350655D01*
X47994268Y-62350812D01*
X48118750Y-62363072D01*
X48668750Y-62363072D01*
X48793232Y-62350812D01*
X48793750Y-62350655D01*
X48794268Y-62350812D01*
X48918750Y-62363072D01*
X49468750Y-62363072D01*
X49593232Y-62350812D01*
X49594413Y-62350454D01*
X49708000Y-62360000D01*
X49800083Y-62267917D01*
X49823244Y-62255537D01*
X49919935Y-62176185D01*
X49993750Y-62086241D01*
X50067565Y-62176185D01*
%TA.AperFunction,Conductor*%
D21*
G36*
X50067565Y-62176185D02*
G01*
X50164256Y-62255537D01*
X50187417Y-62267917D01*
X50279500Y-62360000D01*
X50393087Y-62350454D01*
X50394268Y-62350812D01*
X50518750Y-62363072D01*
X51068750Y-62363072D01*
X51193232Y-62350812D01*
X51193750Y-62350655D01*
X51194268Y-62350812D01*
X51318750Y-62363072D01*
X51868750Y-62363072D01*
X51993232Y-62350812D01*
X51993750Y-62350655D01*
X51994268Y-62350812D01*
X52118750Y-62363072D01*
X52668750Y-62363072D01*
X52793232Y-62350812D01*
X52793750Y-62350655D01*
X52794268Y-62350812D01*
X52918750Y-62363072D01*
X53468750Y-62363072D01*
X53593232Y-62350812D01*
X53593750Y-62350655D01*
X53594268Y-62350812D01*
X53718750Y-62363072D01*
X54268750Y-62363072D01*
X54393232Y-62350812D01*
X54393750Y-62350655D01*
X54394268Y-62350812D01*
X54518750Y-62363072D01*
X55068750Y-62363072D01*
X55193232Y-62350812D01*
X55193750Y-62350655D01*
X55194268Y-62350812D01*
X55318750Y-62363072D01*
X55868750Y-62363072D01*
X55911302Y-62358881D01*
X55908750Y-62389250D01*
X56067500Y-62548000D01*
X56229250Y-62548000D01*
X56229250Y-62648085D01*
X56189256Y-62669463D01*
X56092565Y-62748815D01*
X56013213Y-62845506D01*
X56000833Y-62868667D01*
X55908750Y-62960750D01*
X55918296Y-63074337D01*
X55917938Y-63075518D01*
X55905678Y-63200000D01*
X55905678Y-63750000D01*
X55917938Y-63874482D01*
X55918095Y-63875000D01*
X55917938Y-63875518D01*
X55905678Y-64000000D01*
X55905678Y-64550000D01*
X55917938Y-64674482D01*
X55918095Y-64675000D01*
X55917938Y-64675518D01*
X55905678Y-64800000D01*
X55905678Y-65350000D01*
X55917938Y-65474482D01*
X55918095Y-65475000D01*
X55917938Y-65475518D01*
X55905678Y-65600000D01*
X55905678Y-66150000D01*
X55917938Y-66274482D01*
X55918095Y-66275000D01*
X55917938Y-66275518D01*
X55905678Y-66400000D01*
X55905678Y-66950000D01*
X55917938Y-67074482D01*
X55918095Y-67075000D01*
X55917938Y-67075518D01*
X55905678Y-67200000D01*
X55905678Y-67750000D01*
X55917938Y-67874482D01*
X55918095Y-67875000D01*
X55917938Y-67875518D01*
X55905678Y-68000000D01*
X55905678Y-68550000D01*
X55917938Y-68674482D01*
X55918095Y-68675000D01*
X55917938Y-68675518D01*
X55905678Y-68800000D01*
X55905678Y-69350000D01*
X55917938Y-69474482D01*
X55918095Y-69475000D01*
X55917938Y-69475518D01*
X55905678Y-69600000D01*
X55905678Y-70150000D01*
X55917938Y-70274482D01*
X55918095Y-70275000D01*
X55917938Y-70275518D01*
X55905678Y-70400000D01*
X55905678Y-70950000D01*
X55909712Y-70990962D01*
X55868750Y-70986928D01*
X55318750Y-70986928D01*
X55194268Y-70999188D01*
X55193087Y-70999546D01*
X55079500Y-70990000D01*
X54987417Y-71082083D01*
X54964256Y-71094463D01*
X54867565Y-71173815D01*
X54793750Y-71263759D01*
X54719935Y-71173815D01*
X54623244Y-71094463D01*
X54600083Y-71082083D01*
X54508000Y-70990000D01*
X54394413Y-70999546D01*
X54393232Y-70999188D01*
X54268750Y-70986928D01*
X53718750Y-70986928D01*
X53594268Y-70999188D01*
X53593750Y-70999345D01*
X53593232Y-70999188D01*
X53468750Y-70986928D01*
X52918750Y-70986928D01*
X52794268Y-70999188D01*
X52793750Y-70999345D01*
X52793232Y-70999188D01*
X52668750Y-70986928D01*
X52118750Y-70986928D01*
X51994268Y-70999188D01*
X51993750Y-70999345D01*
X51993232Y-70999188D01*
X51868750Y-70986928D01*
X51318750Y-70986928D01*
X51194268Y-70999188D01*
X51193750Y-70999345D01*
X51193232Y-70999188D01*
X51068750Y-70986928D01*
X50518750Y-70986928D01*
X50394268Y-70999188D01*
X50393750Y-70999345D01*
X50393232Y-70999188D01*
X50268750Y-70986928D01*
X49718750Y-70986928D01*
X49594268Y-70999188D01*
X49593750Y-70999345D01*
X49593232Y-70999188D01*
X49468750Y-70986928D01*
X48918750Y-70986928D01*
X48794268Y-70999188D01*
X48793087Y-70999546D01*
X48679500Y-70990000D01*
X48587417Y-71082083D01*
X48564256Y-71094463D01*
X48467565Y-71173815D01*
X48393750Y-71263759D01*
X48319935Y-71173815D01*
X48223244Y-71094463D01*
X48200083Y-71082083D01*
X48108000Y-70990000D01*
X47994413Y-70999546D01*
X47993232Y-70999188D01*
X47868750Y-70986928D01*
X47318750Y-70986928D01*
X47277788Y-70990962D01*
X47281822Y-70950000D01*
X47281822Y-70400000D01*
X47269562Y-70275518D01*
X47269405Y-70275000D01*
X47269562Y-70274482D01*
X47281822Y-70150000D01*
X47281822Y-69600000D01*
X47269562Y-69475518D01*
X47269405Y-69475000D01*
X47269562Y-69474482D01*
X47281822Y-69350000D01*
X47281822Y-68800000D01*
X47269562Y-68675518D01*
X47269405Y-68675000D01*
X47269562Y-68674482D01*
X47281822Y-68550000D01*
X47281822Y-68000000D01*
X47269562Y-67875518D01*
X47269204Y-67874337D01*
X47278750Y-67760750D01*
X47186667Y-67668667D01*
X47174287Y-67645506D01*
X47094935Y-67548815D01*
X47004991Y-67475000D01*
X47094935Y-67401185D01*
X47174287Y-67304494D01*
X47186667Y-67281333D01*
X47278750Y-67189250D01*
X47269204Y-67075663D01*
X47269562Y-67074482D01*
X47281822Y-66950000D01*
X47281822Y-66400000D01*
X47269562Y-66275518D01*
X47269405Y-66275000D01*
X47269562Y-66274482D01*
X47281822Y-66150000D01*
X47281822Y-65600000D01*
X47269562Y-65475518D01*
X47269405Y-65475000D01*
X47269562Y-65474482D01*
X47281822Y-65350000D01*
X47281822Y-64800000D01*
X47269562Y-64675518D01*
X47269405Y-64675000D01*
X47269562Y-64674482D01*
X47281822Y-64550000D01*
X47281822Y-64000000D01*
X47269562Y-63875518D01*
X47269405Y-63875000D01*
X47269562Y-63874482D01*
X47281822Y-63750000D01*
X47281822Y-63200000D01*
X47269562Y-63075518D01*
X47269405Y-63075000D01*
X47269562Y-63074482D01*
X47281822Y-62950000D01*
X47281822Y-62400000D01*
X47277788Y-62359038D01*
X47318750Y-62363072D01*
X47868750Y-62363072D01*
X47993232Y-62350812D01*
X47993750Y-62350655D01*
X47994268Y-62350812D01*
X48118750Y-62363072D01*
X48668750Y-62363072D01*
X48793232Y-62350812D01*
X48793750Y-62350655D01*
X48794268Y-62350812D01*
X48918750Y-62363072D01*
X49468750Y-62363072D01*
X49593232Y-62350812D01*
X49594413Y-62350454D01*
X49708000Y-62360000D01*
X49800083Y-62267917D01*
X49823244Y-62255537D01*
X49919935Y-62176185D01*
X49993750Y-62086241D01*
X50067565Y-62176185D01*
G37*
%TD.AperFunction*%
%TD*%
D20*
%TO.N,GND*%
X57816750Y-59404250D02*
X52355750Y-59404250D01*
X52355750Y-55269322D01*
X52906250Y-55269322D01*
X53030732Y-55257062D01*
X53150430Y-55220752D01*
X53260744Y-55161787D01*
X53357435Y-55082435D01*
X53436787Y-54985744D01*
X53495752Y-54875430D01*
X53520681Y-54793250D01*
X53616784Y-54793250D01*
X53665788Y-54852962D01*
X53800364Y-54963405D01*
X53953900Y-55045472D01*
X54120496Y-55096008D01*
X54293750Y-55113072D01*
X55243750Y-55113072D01*
X55417004Y-55096008D01*
X55583600Y-55045472D01*
X55737136Y-54963405D01*
X55871712Y-54852962D01*
X55982155Y-54718386D01*
X56064222Y-54564850D01*
X56114758Y-54398254D01*
X56131822Y-54225000D01*
X56131822Y-53725000D01*
X56114758Y-53551746D01*
X56064222Y-53385150D01*
X55982155Y-53231614D01*
X55871712Y-53097038D01*
X55865156Y-53091658D01*
X55944935Y-53026185D01*
X56024287Y-52929494D01*
X56083252Y-52819180D01*
X56119562Y-52699482D01*
X56131822Y-52575000D01*
X56128750Y-52360750D01*
X55970000Y-52202000D01*
X54895750Y-52202000D01*
X54895750Y-52222000D01*
X54641750Y-52222000D01*
X54641750Y-52202000D01*
X54621750Y-52202000D01*
X54621750Y-51948000D01*
X54641750Y-51948000D01*
X54641750Y-51098750D01*
X54895750Y-51098750D01*
X54895750Y-51948000D01*
X55970000Y-51948000D01*
X56128750Y-51789250D01*
X56131822Y-51575000D01*
X56119562Y-51450518D01*
X56083252Y-51330820D01*
X56024287Y-51220506D01*
X55944935Y-51123815D01*
X55848244Y-51044463D01*
X55737930Y-50985498D01*
X55618232Y-50949188D01*
X55493750Y-50936928D01*
X55054500Y-50940000D01*
X54895750Y-51098750D01*
X54641750Y-51098750D01*
X54483000Y-50940000D01*
X54043750Y-50936928D01*
X53919268Y-50949188D01*
X53799570Y-50985498D01*
X53689256Y-51044463D01*
X53592565Y-51123815D01*
X53513213Y-51220506D01*
X53454248Y-51330820D01*
X53439037Y-51380965D01*
X53436787Y-51376756D01*
X53357435Y-51280065D01*
X53260744Y-51200713D01*
X53150430Y-51141748D01*
X53030732Y-51105438D01*
X52906250Y-51093178D01*
X52492000Y-51096250D01*
X52333250Y-51255000D01*
X52333250Y-52204250D01*
X52353250Y-52204250D01*
X52353250Y-52458250D01*
X52333250Y-52458250D01*
X52333250Y-52478250D01*
X52079250Y-52478250D01*
X52079250Y-52458250D01*
X52059250Y-52458250D01*
X52059250Y-52204250D01*
X52079250Y-52204250D01*
X52079250Y-51255000D01*
X51920500Y-51096250D01*
X51506250Y-51093178D01*
X51381768Y-51105438D01*
X51262070Y-51141748D01*
X51151756Y-51200713D01*
X51106250Y-51238059D01*
X51060744Y-51200713D01*
X50950430Y-51141748D01*
X50830732Y-51105438D01*
X50706250Y-51093178D01*
X49306250Y-51093178D01*
X49181768Y-51105438D01*
X49062070Y-51141748D01*
X48951756Y-51200713D01*
X48855065Y-51280065D01*
X48828036Y-51313000D01*
X48029379Y-51313000D01*
X47934212Y-51197038D01*
X47799636Y-51086595D01*
X47646100Y-51004528D01*
X47479504Y-50953992D01*
X47306250Y-50936928D01*
X46356250Y-50936928D01*
X46182996Y-50953992D01*
X46016400Y-51004528D01*
X45862864Y-51086595D01*
X45728288Y-51197038D01*
X45617845Y-51331614D01*
X45535778Y-51485150D01*
X45485242Y-51651746D01*
X45468178Y-51825000D01*
X45468178Y-52325000D01*
X45485242Y-52498254D01*
X45535778Y-52664850D01*
X45617845Y-52818386D01*
X45728288Y-52952962D01*
X45734844Y-52958342D01*
X45655065Y-53023815D01*
X45575713Y-53120506D01*
X45516748Y-53230820D01*
X45480438Y-53350518D01*
X45468178Y-53475000D01*
X45471250Y-53689250D01*
X45630000Y-53848000D01*
X46704250Y-53848000D01*
X46704250Y-53828000D01*
X46958250Y-53828000D01*
X46958250Y-53848000D01*
X46978250Y-53848000D01*
X46978250Y-54102000D01*
X46958250Y-54102000D01*
X46958250Y-54951250D01*
X47117000Y-55110000D01*
X47556250Y-55113072D01*
X47680732Y-55100812D01*
X47800430Y-55064502D01*
X47910744Y-55005537D01*
X47967624Y-54958857D01*
X50031751Y-57022984D01*
X50031750Y-59404250D01*
X49894723Y-59404250D01*
X49883449Y-59383158D01*
X49780291Y-59257459D01*
X49748789Y-59231606D01*
X47112148Y-56594966D01*
X47086291Y-56563459D01*
X46960592Y-56460301D01*
X46817184Y-56383647D01*
X46661576Y-56336444D01*
X46540303Y-56324500D01*
X46540300Y-56324500D01*
X46499750Y-56320506D01*
X46459200Y-56324500D01*
X44577000Y-56324500D01*
X44577000Y-54475000D01*
X45468178Y-54475000D01*
X45480438Y-54599482D01*
X45516748Y-54719180D01*
X45575713Y-54829494D01*
X45655065Y-54926185D01*
X45751756Y-55005537D01*
X45862070Y-55064502D01*
X45981768Y-55100812D01*
X46106250Y-55113072D01*
X46545500Y-55110000D01*
X46704250Y-54951250D01*
X46704250Y-54102000D01*
X45630000Y-54102000D01*
X45471250Y-54260750D01*
X45468178Y-54475000D01*
X44577000Y-54475000D01*
X44577000Y-49339500D01*
X57816750Y-49339500D01*
X57816750Y-59404250D01*
%TA.AperFunction,Conductor*%
D21*
G36*
X57816750Y-59404250D02*
G01*
X52355750Y-59404250D01*
X52355750Y-55269322D01*
X52906250Y-55269322D01*
X53030732Y-55257062D01*
X53150430Y-55220752D01*
X53260744Y-55161787D01*
X53357435Y-55082435D01*
X53436787Y-54985744D01*
X53495752Y-54875430D01*
X53520681Y-54793250D01*
X53616784Y-54793250D01*
X53665788Y-54852962D01*
X53800364Y-54963405D01*
X53953900Y-55045472D01*
X54120496Y-55096008D01*
X54293750Y-55113072D01*
X55243750Y-55113072D01*
X55417004Y-55096008D01*
X55583600Y-55045472D01*
X55737136Y-54963405D01*
X55871712Y-54852962D01*
X55982155Y-54718386D01*
X56064222Y-54564850D01*
X56114758Y-54398254D01*
X56131822Y-54225000D01*
X56131822Y-53725000D01*
X56114758Y-53551746D01*
X56064222Y-53385150D01*
X55982155Y-53231614D01*
X55871712Y-53097038D01*
X55865156Y-53091658D01*
X55944935Y-53026185D01*
X56024287Y-52929494D01*
X56083252Y-52819180D01*
X56119562Y-52699482D01*
X56131822Y-52575000D01*
X56128750Y-52360750D01*
X55970000Y-52202000D01*
X54895750Y-52202000D01*
X54895750Y-52222000D01*
X54641750Y-52222000D01*
X54641750Y-52202000D01*
X54621750Y-52202000D01*
X54621750Y-51948000D01*
X54641750Y-51948000D01*
X54641750Y-51098750D01*
X54895750Y-51098750D01*
X54895750Y-51948000D01*
X55970000Y-51948000D01*
X56128750Y-51789250D01*
X56131822Y-51575000D01*
X56119562Y-51450518D01*
X56083252Y-51330820D01*
X56024287Y-51220506D01*
X55944935Y-51123815D01*
X55848244Y-51044463D01*
X55737930Y-50985498D01*
X55618232Y-50949188D01*
X55493750Y-50936928D01*
X55054500Y-50940000D01*
X54895750Y-51098750D01*
X54641750Y-51098750D01*
X54483000Y-50940000D01*
X54043750Y-50936928D01*
X53919268Y-50949188D01*
X53799570Y-50985498D01*
X53689256Y-51044463D01*
X53592565Y-51123815D01*
X53513213Y-51220506D01*
X53454248Y-51330820D01*
X53439037Y-51380965D01*
X53436787Y-51376756D01*
X53357435Y-51280065D01*
X53260744Y-51200713D01*
X53150430Y-51141748D01*
X53030732Y-51105438D01*
X52906250Y-51093178D01*
X52492000Y-51096250D01*
X52333250Y-51255000D01*
X52333250Y-52204250D01*
X52353250Y-52204250D01*
X52353250Y-52458250D01*
X52333250Y-52458250D01*
X52333250Y-52478250D01*
X52079250Y-52478250D01*
X52079250Y-52458250D01*
X52059250Y-52458250D01*
X52059250Y-52204250D01*
X52079250Y-52204250D01*
X52079250Y-51255000D01*
X51920500Y-51096250D01*
X51506250Y-51093178D01*
X51381768Y-51105438D01*
X51262070Y-51141748D01*
X51151756Y-51200713D01*
X51106250Y-51238059D01*
X51060744Y-51200713D01*
X50950430Y-51141748D01*
X50830732Y-51105438D01*
X50706250Y-51093178D01*
X49306250Y-51093178D01*
X49181768Y-51105438D01*
X49062070Y-51141748D01*
X48951756Y-51200713D01*
X48855065Y-51280065D01*
X48828036Y-51313000D01*
X48029379Y-51313000D01*
X47934212Y-51197038D01*
X47799636Y-51086595D01*
X47646100Y-51004528D01*
X47479504Y-50953992D01*
X47306250Y-50936928D01*
X46356250Y-50936928D01*
X46182996Y-50953992D01*
X46016400Y-51004528D01*
X45862864Y-51086595D01*
X45728288Y-51197038D01*
X45617845Y-51331614D01*
X45535778Y-51485150D01*
X45485242Y-51651746D01*
X45468178Y-51825000D01*
X45468178Y-52325000D01*
X45485242Y-52498254D01*
X45535778Y-52664850D01*
X45617845Y-52818386D01*
X45728288Y-52952962D01*
X45734844Y-52958342D01*
X45655065Y-53023815D01*
X45575713Y-53120506D01*
X45516748Y-53230820D01*
X45480438Y-53350518D01*
X45468178Y-53475000D01*
X45471250Y-53689250D01*
X45630000Y-53848000D01*
X46704250Y-53848000D01*
X46704250Y-53828000D01*
X46958250Y-53828000D01*
X46958250Y-53848000D01*
X46978250Y-53848000D01*
X46978250Y-54102000D01*
X46958250Y-54102000D01*
X46958250Y-54951250D01*
X47117000Y-55110000D01*
X47556250Y-55113072D01*
X47680732Y-55100812D01*
X47800430Y-55064502D01*
X47910744Y-55005537D01*
X47967624Y-54958857D01*
X50031751Y-57022984D01*
X50031750Y-59404250D01*
X49894723Y-59404250D01*
X49883449Y-59383158D01*
X49780291Y-59257459D01*
X49748789Y-59231606D01*
X47112148Y-56594966D01*
X47086291Y-56563459D01*
X46960592Y-56460301D01*
X46817184Y-56383647D01*
X46661576Y-56336444D01*
X46540303Y-56324500D01*
X46540300Y-56324500D01*
X46499750Y-56320506D01*
X46459200Y-56324500D01*
X44577000Y-56324500D01*
X44577000Y-54475000D01*
X45468178Y-54475000D01*
X45480438Y-54599482D01*
X45516748Y-54719180D01*
X45575713Y-54829494D01*
X45655065Y-54926185D01*
X45751756Y-55005537D01*
X45862070Y-55064502D01*
X45981768Y-55100812D01*
X46106250Y-55113072D01*
X46545500Y-55110000D01*
X46704250Y-54951250D01*
X46704250Y-54102000D01*
X45630000Y-54102000D01*
X45471250Y-54260750D01*
X45468178Y-54475000D01*
X44577000Y-54475000D01*
X44577000Y-49339500D01*
X57816750Y-49339500D01*
X57816750Y-59404250D01*
G37*
%TD.AperFunction*%
D20*
X50133250Y-53904250D02*
X50153250Y-53904250D01*
X50153250Y-54158250D01*
X50133250Y-54158250D01*
X50133250Y-54178250D01*
X49879250Y-54178250D01*
X49879250Y-54158250D01*
X49859250Y-54158250D01*
X49859250Y-53904250D01*
X49879250Y-53904250D01*
X49879250Y-53884250D01*
X50133250Y-53884250D01*
X50133250Y-53904250D01*
%TA.AperFunction,Conductor*%
D21*
G36*
X50133250Y-53904250D02*
G01*
X50153250Y-53904250D01*
X50153250Y-54158250D01*
X50133250Y-54158250D01*
X50133250Y-54178250D01*
X49879250Y-54178250D01*
X49879250Y-54158250D01*
X49859250Y-54158250D01*
X49859250Y-53904250D01*
X49879250Y-53904250D01*
X49879250Y-53884250D01*
X50133250Y-53884250D01*
X50133250Y-53904250D01*
G37*
%TD.AperFunction*%
%TD*%
D20*
%TO.N,GND*%
X33227651Y-46816466D02*
X33142737Y-47096389D01*
X33121250Y-47314550D01*
X33121250Y-48460449D01*
X33142737Y-48678610D01*
X33227651Y-48958533D01*
X33365544Y-49216513D01*
X33551116Y-49442634D01*
X33777236Y-49628206D01*
X34035216Y-49766099D01*
X34315139Y-49851013D01*
X34606250Y-49879685D01*
X34897360Y-49851013D01*
X35177283Y-49766099D01*
X35435263Y-49628206D01*
X35591750Y-49499781D01*
X35591750Y-50775219D01*
X35435264Y-50646794D01*
X35177284Y-50508901D01*
X34897361Y-50423987D01*
X34606250Y-50395315D01*
X34315140Y-50423987D01*
X34035217Y-50508901D01*
X33777237Y-50646794D01*
X33551117Y-50832366D01*
X33396373Y-51020921D01*
X33340656Y-50913866D01*
X33262373Y-50816307D01*
X33166561Y-50735896D01*
X33056902Y-50675721D01*
X32937611Y-50638096D01*
X32838000Y-50627500D01*
X32679250Y-50786250D01*
X32679250Y-52260500D01*
X32703250Y-52260500D01*
X32703250Y-52514500D01*
X32679250Y-52514500D01*
X32679250Y-52534500D01*
X32644322Y-52534500D01*
X32644322Y-51262500D01*
X32632062Y-51138018D01*
X32595752Y-51018320D01*
X32536787Y-50908006D01*
X32457435Y-50811315D01*
X32433250Y-50791467D01*
X32433250Y-50786250D01*
X32274500Y-50627500D01*
X32174889Y-50638096D01*
X32155516Y-50644206D01*
X32130732Y-50636688D01*
X32006250Y-50624428D01*
X31506250Y-50624428D01*
X31381768Y-50636688D01*
X31356250Y-50644429D01*
X31330732Y-50636688D01*
X31206250Y-50624428D01*
X30706250Y-50624428D01*
X30581768Y-50636688D01*
X30556250Y-50644429D01*
X30530732Y-50636688D01*
X30406250Y-50624428D01*
X29906250Y-50624428D01*
X29781768Y-50636688D01*
X29756250Y-50644429D01*
X29730732Y-50636688D01*
X29606250Y-50624428D01*
X29106250Y-50624428D01*
X28981768Y-50636688D01*
X28862070Y-50672998D01*
X28751756Y-50731963D01*
X28655065Y-50811315D01*
X28575713Y-50908006D01*
X28516748Y-51018320D01*
X28516004Y-51020771D01*
X28361384Y-50832366D01*
X28135264Y-50646794D01*
X27877284Y-50508901D01*
X27597361Y-50423987D01*
X27306250Y-50395315D01*
X27015140Y-50423987D01*
X26735217Y-50508901D01*
X26477237Y-50646794D01*
X26320750Y-50775220D01*
X26320750Y-49499781D01*
X26477236Y-49628206D01*
X26735216Y-49766099D01*
X27015139Y-49851013D01*
X27306250Y-49879685D01*
X27597360Y-49851013D01*
X27877283Y-49766099D01*
X28135263Y-49628206D01*
X28361384Y-49442634D01*
X28546956Y-49216514D01*
X28684849Y-48958534D01*
X28769763Y-48678611D01*
X28791250Y-48460450D01*
X28791250Y-47314550D01*
X28769763Y-47096389D01*
X28684849Y-46816466D01*
X28621260Y-46697500D01*
X33291240Y-46697500D01*
X33227651Y-46816466D01*
%TA.AperFunction,Conductor*%
D21*
G36*
X33227651Y-46816466D02*
G01*
X33142737Y-47096389D01*
X33121250Y-47314550D01*
X33121250Y-48460449D01*
X33142737Y-48678610D01*
X33227651Y-48958533D01*
X33365544Y-49216513D01*
X33551116Y-49442634D01*
X33777236Y-49628206D01*
X34035216Y-49766099D01*
X34315139Y-49851013D01*
X34606250Y-49879685D01*
X34897360Y-49851013D01*
X35177283Y-49766099D01*
X35435263Y-49628206D01*
X35591750Y-49499781D01*
X35591750Y-50775219D01*
X35435264Y-50646794D01*
X35177284Y-50508901D01*
X34897361Y-50423987D01*
X34606250Y-50395315D01*
X34315140Y-50423987D01*
X34035217Y-50508901D01*
X33777237Y-50646794D01*
X33551117Y-50832366D01*
X33396373Y-51020921D01*
X33340656Y-50913866D01*
X33262373Y-50816307D01*
X33166561Y-50735896D01*
X33056902Y-50675721D01*
X32937611Y-50638096D01*
X32838000Y-50627500D01*
X32679250Y-50786250D01*
X32679250Y-52260500D01*
X32703250Y-52260500D01*
X32703250Y-52514500D01*
X32679250Y-52514500D01*
X32679250Y-52534500D01*
X32644322Y-52534500D01*
X32644322Y-51262500D01*
X32632062Y-51138018D01*
X32595752Y-51018320D01*
X32536787Y-50908006D01*
X32457435Y-50811315D01*
X32433250Y-50791467D01*
X32433250Y-50786250D01*
X32274500Y-50627500D01*
X32174889Y-50638096D01*
X32155516Y-50644206D01*
X32130732Y-50636688D01*
X32006250Y-50624428D01*
X31506250Y-50624428D01*
X31381768Y-50636688D01*
X31356250Y-50644429D01*
X31330732Y-50636688D01*
X31206250Y-50624428D01*
X30706250Y-50624428D01*
X30581768Y-50636688D01*
X30556250Y-50644429D01*
X30530732Y-50636688D01*
X30406250Y-50624428D01*
X29906250Y-50624428D01*
X29781768Y-50636688D01*
X29756250Y-50644429D01*
X29730732Y-50636688D01*
X29606250Y-50624428D01*
X29106250Y-50624428D01*
X28981768Y-50636688D01*
X28862070Y-50672998D01*
X28751756Y-50731963D01*
X28655065Y-50811315D01*
X28575713Y-50908006D01*
X28516748Y-51018320D01*
X28516004Y-51020771D01*
X28361384Y-50832366D01*
X28135264Y-50646794D01*
X27877284Y-50508901D01*
X27597361Y-50423987D01*
X27306250Y-50395315D01*
X27015140Y-50423987D01*
X26735217Y-50508901D01*
X26477237Y-50646794D01*
X26320750Y-50775220D01*
X26320750Y-49499781D01*
X26477236Y-49628206D01*
X26735216Y-49766099D01*
X27015139Y-49851013D01*
X27306250Y-49879685D01*
X27597360Y-49851013D01*
X27877283Y-49766099D01*
X28135263Y-49628206D01*
X28361384Y-49442634D01*
X28546956Y-49216514D01*
X28684849Y-48958534D01*
X28769763Y-48678611D01*
X28791250Y-48460450D01*
X28791250Y-47314550D01*
X28769763Y-47096389D01*
X28684849Y-46816466D01*
X28621260Y-46697500D01*
X33291240Y-46697500D01*
X33227651Y-46816466D01*
G37*
%TD.AperFunction*%
%TD*%
M02*
