%TF.GenerationSoftware,KiCad,Pcbnew,(5.1.10)-1*%
%TF.CreationDate,2021-09-07T16:31:46+07:00*%
%TF.ProjectId,trialkb,74726961-6c6b-4622-9e6b-696361645f70,rev?*%
%TF.SameCoordinates,Original*%
%TF.FileFunction,Soldermask,Bot*%
%TF.FilePolarity,Negative*%
%FSLAX46Y46*%
G04 Gerber Fmt 4.6, Leading zero omitted, Abs format (unit mm)*
G04 Created by KiCad (PCBNEW (5.1.10)-1) date 2021-09-07 16:31:46*
%MOMM*%
%LPD*%
G01*
G04 APERTURE LIST*
%ADD10R,1.800000X1.100000*%
%ADD11C,1.750000*%
%ADD12C,2.250000*%
%ADD13C,3.987800*%
%ADD14R,1.400000X1.200000*%
%ADD15O,1.700000X2.700000*%
%ADD16R,0.500000X2.250000*%
%ADD17R,0.550000X1.500000*%
%ADD18R,1.500000X0.550000*%
%ADD19R,1.200000X0.900000*%
G04 APERTURE END LIST*
D10*
%TO.C,SW1*%
X34056250Y-77256250D03*
X27856250Y-73556250D03*
X34056250Y-73556250D03*
X27856250Y-77256250D03*
%TD*%
D11*
%TO.C,MX2*%
X78105000Y-74612500D03*
X67945000Y-74612500D03*
D12*
X70525000Y-70612500D03*
D13*
X73025000Y-74612500D03*
G36*
G01*
X68463688Y-72909850D02*
X68463683Y-72909845D01*
G75*
G02*
X68377655Y-71321183I751317J837345D01*
G01*
X69687657Y-69861183D01*
G75*
G02*
X71276319Y-69775155I837345J-751317D01*
G01*
X71276319Y-69775155D01*
G75*
G02*
X71362347Y-71363817I-751317J-837345D01*
G01*
X70052345Y-72823817D01*
G75*
G02*
X68463683Y-72909845I-837345J751317D01*
G01*
G37*
D12*
X75565000Y-69532500D03*
G36*
G01*
X75448483Y-71234895D02*
X75447597Y-71234834D01*
G75*
G02*
X74402666Y-70035097I77403J1122334D01*
G01*
X74442666Y-69455097D01*
G75*
G02*
X75642403Y-68410166I1122334J-77403D01*
G01*
X75642403Y-68410166D01*
G75*
G02*
X76687334Y-69609903I-77403J-1122334D01*
G01*
X76647334Y-70189903D01*
G75*
G02*
X75447597Y-71234834I-1122334J77403D01*
G01*
G37*
%TD*%
D14*
%TO.C,Y1*%
X52206250Y-52331250D03*
X50006250Y-52331250D03*
X50006250Y-54031250D03*
X52206250Y-54031250D03*
%TD*%
D15*
%TO.C,USB1*%
X27306250Y-47887500D03*
X34606250Y-47887500D03*
X34606250Y-52387500D03*
X27306250Y-52387500D03*
D16*
X29356250Y-52387500D03*
X30156250Y-52387500D03*
X30956250Y-52387500D03*
X31756250Y-52387500D03*
X32556250Y-52387500D03*
%TD*%
D17*
%TO.C,U1*%
X47593750Y-72375000D03*
X48393750Y-72375000D03*
X49193750Y-72375000D03*
X49993750Y-72375000D03*
X50793750Y-72375000D03*
X51593750Y-72375000D03*
X52393750Y-72375000D03*
X53193750Y-72375000D03*
X53993750Y-72375000D03*
X54793750Y-72375000D03*
X55593750Y-72375000D03*
D18*
X57293750Y-70675000D03*
X57293750Y-69875000D03*
X57293750Y-69075000D03*
X57293750Y-68275000D03*
X57293750Y-67475000D03*
X57293750Y-66675000D03*
X57293750Y-65875000D03*
X57293750Y-65075000D03*
X57293750Y-64275000D03*
X57293750Y-63475000D03*
X57293750Y-62675000D03*
D17*
X55593750Y-60975000D03*
X54793750Y-60975000D03*
X53993750Y-60975000D03*
X53193750Y-60975000D03*
X52393750Y-60975000D03*
X51593750Y-60975000D03*
X50793750Y-60975000D03*
X49993750Y-60975000D03*
X49193750Y-60975000D03*
X48393750Y-60975000D03*
X47593750Y-60975000D03*
D18*
X45893750Y-62675000D03*
X45893750Y-63475000D03*
X45893750Y-64275000D03*
X45893750Y-65075000D03*
X45893750Y-65875000D03*
X45893750Y-66675000D03*
X45893750Y-67475000D03*
X45893750Y-68275000D03*
X45893750Y-69075000D03*
X45893750Y-69875000D03*
X45893750Y-70675000D03*
%TD*%
%TO.C,R4*%
G36*
G01*
X61568751Y-71950000D02*
X60668749Y-71950000D01*
G75*
G02*
X60418750Y-71700001I0J249999D01*
G01*
X60418750Y-71174999D01*
G75*
G02*
X60668749Y-70925000I249999J0D01*
G01*
X61568751Y-70925000D01*
G75*
G02*
X61818750Y-71174999I0J-249999D01*
G01*
X61818750Y-71700001D01*
G75*
G02*
X61568751Y-71950000I-249999J0D01*
G01*
G37*
G36*
G01*
X61568751Y-73775000D02*
X60668749Y-73775000D01*
G75*
G02*
X60418750Y-73525001I0J249999D01*
G01*
X60418750Y-72999999D01*
G75*
G02*
X60668749Y-72750000I249999J0D01*
G01*
X61568751Y-72750000D01*
G75*
G02*
X61818750Y-72999999I0J-249999D01*
G01*
X61818750Y-73525001D01*
G75*
G02*
X61568751Y-73775000I-249999J0D01*
G01*
G37*
%TD*%
%TO.C,R3*%
G36*
G01*
X36856249Y-56081250D02*
X37756251Y-56081250D01*
G75*
G02*
X38006250Y-56331249I0J-249999D01*
G01*
X38006250Y-56856251D01*
G75*
G02*
X37756251Y-57106250I-249999J0D01*
G01*
X36856249Y-57106250D01*
G75*
G02*
X36606250Y-56856251I0J249999D01*
G01*
X36606250Y-56331249D01*
G75*
G02*
X36856249Y-56081250I249999J0D01*
G01*
G37*
G36*
G01*
X36856249Y-54256250D02*
X37756251Y-54256250D01*
G75*
G02*
X38006250Y-54506249I0J-249999D01*
G01*
X38006250Y-55031251D01*
G75*
G02*
X37756251Y-55281250I-249999J0D01*
G01*
X36856249Y-55281250D01*
G75*
G02*
X36606250Y-55031251I0J249999D01*
G01*
X36606250Y-54506249D01*
G75*
G02*
X36856249Y-54256250I249999J0D01*
G01*
G37*
%TD*%
%TO.C,R2*%
G36*
G01*
X32993751Y-56868750D02*
X32093749Y-56868750D01*
G75*
G02*
X31843750Y-56618751I0J249999D01*
G01*
X31843750Y-56093749D01*
G75*
G02*
X32093749Y-55843750I249999J0D01*
G01*
X32993751Y-55843750D01*
G75*
G02*
X33243750Y-56093749I0J-249999D01*
G01*
X33243750Y-56618751D01*
G75*
G02*
X32993751Y-56868750I-249999J0D01*
G01*
G37*
G36*
G01*
X32993751Y-58693750D02*
X32093749Y-58693750D01*
G75*
G02*
X31843750Y-58443751I0J249999D01*
G01*
X31843750Y-57918749D01*
G75*
G02*
X32093749Y-57668750I249999J0D01*
G01*
X32993751Y-57668750D01*
G75*
G02*
X33243750Y-57918749I0J-249999D01*
G01*
X33243750Y-58443751D01*
G75*
G02*
X32993751Y-58693750I-249999J0D01*
G01*
G37*
%TD*%
%TO.C,R1*%
G36*
G01*
X29818751Y-56868750D02*
X28918749Y-56868750D01*
G75*
G02*
X28668750Y-56618751I0J249999D01*
G01*
X28668750Y-56093749D01*
G75*
G02*
X28918749Y-55843750I249999J0D01*
G01*
X29818751Y-55843750D01*
G75*
G02*
X30068750Y-56093749I0J-249999D01*
G01*
X30068750Y-56618751D01*
G75*
G02*
X29818751Y-56868750I-249999J0D01*
G01*
G37*
G36*
G01*
X29818751Y-58693750D02*
X28918749Y-58693750D01*
G75*
G02*
X28668750Y-58443751I0J249999D01*
G01*
X28668750Y-57918749D01*
G75*
G02*
X28918749Y-57668750I249999J0D01*
G01*
X29818751Y-57668750D01*
G75*
G02*
X30068750Y-57918749I0J-249999D01*
G01*
X30068750Y-58443751D01*
G75*
G02*
X29818751Y-58693750I-249999J0D01*
G01*
G37*
%TD*%
D11*
%TO.C,MX4*%
X97155000Y-74612500D03*
X86995000Y-74612500D03*
D12*
X89575000Y-70612500D03*
D13*
X92075000Y-74612500D03*
G36*
G01*
X87513688Y-72909850D02*
X87513683Y-72909845D01*
G75*
G02*
X87427655Y-71321183I751317J837345D01*
G01*
X88737657Y-69861183D01*
G75*
G02*
X90326319Y-69775155I837345J-751317D01*
G01*
X90326319Y-69775155D01*
G75*
G02*
X90412347Y-71363817I-751317J-837345D01*
G01*
X89102345Y-72823817D01*
G75*
G02*
X87513683Y-72909845I-837345J751317D01*
G01*
G37*
D12*
X94615000Y-69532500D03*
G36*
G01*
X94498483Y-71234895D02*
X94497597Y-71234834D01*
G75*
G02*
X93452666Y-70035097I77403J1122334D01*
G01*
X93492666Y-69455097D01*
G75*
G02*
X94692403Y-68410166I1122334J-77403D01*
G01*
X94692403Y-68410166D01*
G75*
G02*
X95737334Y-69609903I-77403J-1122334D01*
G01*
X95697334Y-70189903D01*
G75*
G02*
X94497597Y-71234834I-1122334J77403D01*
G01*
G37*
%TD*%
D11*
%TO.C,MX3*%
X97155000Y-55562500D03*
X86995000Y-55562500D03*
D12*
X89575000Y-51562500D03*
D13*
X92075000Y-55562500D03*
G36*
G01*
X87513688Y-53859850D02*
X87513683Y-53859845D01*
G75*
G02*
X87427655Y-52271183I751317J837345D01*
G01*
X88737657Y-50811183D01*
G75*
G02*
X90326319Y-50725155I837345J-751317D01*
G01*
X90326319Y-50725155D01*
G75*
G02*
X90412347Y-52313817I-751317J-837345D01*
G01*
X89102345Y-53773817D01*
G75*
G02*
X87513683Y-53859845I-837345J751317D01*
G01*
G37*
D12*
X94615000Y-50482500D03*
G36*
G01*
X94498483Y-52184895D02*
X94497597Y-52184834D01*
G75*
G02*
X93452666Y-50985097I77403J1122334D01*
G01*
X93492666Y-50405097D01*
G75*
G02*
X94692403Y-49360166I1122334J-77403D01*
G01*
X94692403Y-49360166D01*
G75*
G02*
X95737334Y-50559903I-77403J-1122334D01*
G01*
X95697334Y-51139903D01*
G75*
G02*
X94497597Y-52184834I-1122334J77403D01*
G01*
G37*
%TD*%
D11*
%TO.C,MX1*%
X78105000Y-55562500D03*
X67945000Y-55562500D03*
D12*
X70525000Y-51562500D03*
D13*
X73025000Y-55562500D03*
G36*
G01*
X68463688Y-53859850D02*
X68463683Y-53859845D01*
G75*
G02*
X68377655Y-52271183I751317J837345D01*
G01*
X69687657Y-50811183D01*
G75*
G02*
X71276319Y-50725155I837345J-751317D01*
G01*
X71276319Y-50725155D01*
G75*
G02*
X71362347Y-52313817I-751317J-837345D01*
G01*
X70052345Y-53773817D01*
G75*
G02*
X68463683Y-53859845I-837345J751317D01*
G01*
G37*
D12*
X75565000Y-50482500D03*
G36*
G01*
X75448483Y-52184895D02*
X75447597Y-52184834D01*
G75*
G02*
X74402666Y-50985097I77403J1122334D01*
G01*
X74442666Y-50405097D01*
G75*
G02*
X75642403Y-49360166I1122334J-77403D01*
G01*
X75642403Y-49360166D01*
G75*
G02*
X76687334Y-50559903I-77403J-1122334D01*
G01*
X76647334Y-51139903D01*
G75*
G02*
X75447597Y-52184834I-1122334J77403D01*
G01*
G37*
%TD*%
%TO.C,F1*%
G36*
G01*
X29200000Y-64312500D02*
X27950000Y-64312500D01*
G75*
G02*
X27700000Y-64062500I0J250000D01*
G01*
X27700000Y-63312500D01*
G75*
G02*
X27950000Y-63062500I250000J0D01*
G01*
X29200000Y-63062500D01*
G75*
G02*
X29450000Y-63312500I0J-250000D01*
G01*
X29450000Y-64062500D01*
G75*
G02*
X29200000Y-64312500I-250000J0D01*
G01*
G37*
G36*
G01*
X29200000Y-67112500D02*
X27950000Y-67112500D01*
G75*
G02*
X27700000Y-66862500I0J250000D01*
G01*
X27700000Y-66112500D01*
G75*
G02*
X27950000Y-65862500I250000J0D01*
G01*
X29200000Y-65862500D01*
G75*
G02*
X29450000Y-66112500I0J-250000D01*
G01*
X29450000Y-66862500D01*
G75*
G02*
X29200000Y-67112500I-250000J0D01*
G01*
G37*
%TD*%
D19*
%TO.C,D4*%
X100012500Y-72962500D03*
X100012500Y-76262500D03*
%TD*%
%TO.C,D3*%
X100012500Y-53912500D03*
X100012500Y-57212500D03*
%TD*%
%TO.C,D2*%
X80962500Y-72962500D03*
X80962500Y-76262500D03*
%TD*%
%TO.C,D1*%
X80962500Y-53912500D03*
X80962500Y-57212500D03*
%TD*%
%TO.C,C7*%
G36*
G01*
X40187500Y-65406250D02*
X40187500Y-66356250D01*
G75*
G02*
X39937500Y-66606250I-250000J0D01*
G01*
X39437500Y-66606250D01*
G75*
G02*
X39187500Y-66356250I0J250000D01*
G01*
X39187500Y-65406250D01*
G75*
G02*
X39437500Y-65156250I250000J0D01*
G01*
X39937500Y-65156250D01*
G75*
G02*
X40187500Y-65406250I0J-250000D01*
G01*
G37*
G36*
G01*
X42087500Y-65406250D02*
X42087500Y-66356250D01*
G75*
G02*
X41837500Y-66606250I-250000J0D01*
G01*
X41337500Y-66606250D01*
G75*
G02*
X41087500Y-66356250I0J250000D01*
G01*
X41087500Y-65406250D01*
G75*
G02*
X41337500Y-65156250I250000J0D01*
G01*
X41837500Y-65156250D01*
G75*
G02*
X42087500Y-65406250I0J-250000D01*
G01*
G37*
%TD*%
%TO.C,C6*%
G36*
G01*
X40800000Y-72681250D02*
X41750000Y-72681250D01*
G75*
G02*
X42000000Y-72931250I0J-250000D01*
G01*
X42000000Y-73431250D01*
G75*
G02*
X41750000Y-73681250I-250000J0D01*
G01*
X40800000Y-73681250D01*
G75*
G02*
X40550000Y-73431250I0J250000D01*
G01*
X40550000Y-72931250D01*
G75*
G02*
X40800000Y-72681250I250000J0D01*
G01*
G37*
G36*
G01*
X40800000Y-70781250D02*
X41750000Y-70781250D01*
G75*
G02*
X42000000Y-71031250I0J-250000D01*
G01*
X42000000Y-71531250D01*
G75*
G02*
X41750000Y-71781250I-250000J0D01*
G01*
X40800000Y-71781250D01*
G75*
G02*
X40550000Y-71531250I0J250000D01*
G01*
X40550000Y-71031250D01*
G75*
G02*
X40800000Y-70781250I250000J0D01*
G01*
G37*
%TD*%
%TO.C,C5*%
G36*
G01*
X46356250Y-53475000D02*
X47306250Y-53475000D01*
G75*
G02*
X47556250Y-53725000I0J-250000D01*
G01*
X47556250Y-54225000D01*
G75*
G02*
X47306250Y-54475000I-250000J0D01*
G01*
X46356250Y-54475000D01*
G75*
G02*
X46106250Y-54225000I0J250000D01*
G01*
X46106250Y-53725000D01*
G75*
G02*
X46356250Y-53475000I250000J0D01*
G01*
G37*
G36*
G01*
X46356250Y-51575000D02*
X47306250Y-51575000D01*
G75*
G02*
X47556250Y-51825000I0J-250000D01*
G01*
X47556250Y-52325000D01*
G75*
G02*
X47306250Y-52575000I-250000J0D01*
G01*
X46356250Y-52575000D01*
G75*
G02*
X46106250Y-52325000I0J250000D01*
G01*
X46106250Y-51825000D01*
G75*
G02*
X46356250Y-51575000I250000J0D01*
G01*
G37*
%TD*%
%TO.C,C4*%
G36*
G01*
X55243750Y-52575000D02*
X54293750Y-52575000D01*
G75*
G02*
X54043750Y-52325000I0J250000D01*
G01*
X54043750Y-51825000D01*
G75*
G02*
X54293750Y-51575000I250000J0D01*
G01*
X55243750Y-51575000D01*
G75*
G02*
X55493750Y-51825000I0J-250000D01*
G01*
X55493750Y-52325000D01*
G75*
G02*
X55243750Y-52575000I-250000J0D01*
G01*
G37*
G36*
G01*
X55243750Y-54475000D02*
X54293750Y-54475000D01*
G75*
G02*
X54043750Y-54225000I0J250000D01*
G01*
X54043750Y-53725000D01*
G75*
G02*
X54293750Y-53475000I250000J0D01*
G01*
X55243750Y-53475000D01*
G75*
G02*
X55493750Y-53725000I0J-250000D01*
G01*
X55493750Y-54225000D01*
G75*
G02*
X55243750Y-54475000I-250000J0D01*
G01*
G37*
%TD*%
%TO.C,C3*%
G36*
G01*
X42543750Y-57650000D02*
X41593750Y-57650000D01*
G75*
G02*
X41343750Y-57400000I0J250000D01*
G01*
X41343750Y-56900000D01*
G75*
G02*
X41593750Y-56650000I250000J0D01*
G01*
X42543750Y-56650000D01*
G75*
G02*
X42793750Y-56900000I0J-250000D01*
G01*
X42793750Y-57400000D01*
G75*
G02*
X42543750Y-57650000I-250000J0D01*
G01*
G37*
G36*
G01*
X42543750Y-55750000D02*
X41593750Y-55750000D01*
G75*
G02*
X41343750Y-55500000I0J250000D01*
G01*
X41343750Y-55000000D01*
G75*
G02*
X41593750Y-54750000I250000J0D01*
G01*
X42543750Y-54750000D01*
G75*
G02*
X42793750Y-55000000I0J-250000D01*
G01*
X42793750Y-55500000D01*
G75*
G02*
X42543750Y-55750000I-250000J0D01*
G01*
G37*
%TD*%
%TO.C,C2*%
G36*
G01*
X61593750Y-61306250D02*
X60643750Y-61306250D01*
G75*
G02*
X60393750Y-61056250I0J250000D01*
G01*
X60393750Y-60556250D01*
G75*
G02*
X60643750Y-60306250I250000J0D01*
G01*
X61593750Y-60306250D01*
G75*
G02*
X61843750Y-60556250I0J-250000D01*
G01*
X61843750Y-61056250D01*
G75*
G02*
X61593750Y-61306250I-250000J0D01*
G01*
G37*
G36*
G01*
X61593750Y-63206250D02*
X60643750Y-63206250D01*
G75*
G02*
X60393750Y-62956250I0J250000D01*
G01*
X60393750Y-62456250D01*
G75*
G02*
X60643750Y-62206250I250000J0D01*
G01*
X61593750Y-62206250D01*
G75*
G02*
X61843750Y-62456250I0J-250000D01*
G01*
X61843750Y-62956250D01*
G75*
G02*
X61593750Y-63206250I-250000J0D01*
G01*
G37*
%TD*%
%TO.C,C1*%
G36*
G01*
X56543750Y-76518750D02*
X56543750Y-77468750D01*
G75*
G02*
X56293750Y-77718750I-250000J0D01*
G01*
X55793750Y-77718750D01*
G75*
G02*
X55543750Y-77468750I0J250000D01*
G01*
X55543750Y-76518750D01*
G75*
G02*
X55793750Y-76268750I250000J0D01*
G01*
X56293750Y-76268750D01*
G75*
G02*
X56543750Y-76518750I0J-250000D01*
G01*
G37*
G36*
G01*
X58443750Y-76518750D02*
X58443750Y-77468750D01*
G75*
G02*
X58193750Y-77718750I-250000J0D01*
G01*
X57693750Y-77718750D01*
G75*
G02*
X57443750Y-77468750I0J250000D01*
G01*
X57443750Y-76518750D01*
G75*
G02*
X57693750Y-76268750I250000J0D01*
G01*
X58193750Y-76268750D01*
G75*
G02*
X58443750Y-76518750I0J-250000D01*
G01*
G37*
%TD*%
M02*
