M48
; DRILL file {KiCad (5.1.10)-1} date 09/07/21 16:32:03
; FORMAT={-:-/ absolute / inch / decimal}
; #@! TF.CreationDate,2021-09-07T16:32:03+07:00
; #@! TF.GenerationSoftware,Kicad,Pcbnew,(5.1.10)-1
; #@! TF.FileFunction,Plated,1,2,PTH
FMAT,2
INCH
T1C0.0157
T2C0.0276
T3C0.0579
%
G90
G05
T1
X1.4375Y-2.2812
X1.4375Y-2.875
X1.5938Y-2.1875
X1.6875Y-2.5938
X1.6875Y-2.8688
X2.3438Y-3.0312
X2.4688Y-2.4688
T3
X2.725Y-2.0875
X2.725Y-2.8375
X2.7766Y-2.03
X2.7766Y-2.78
X2.9734Y-2.0103
X2.9734Y-2.7603
X2.975Y-1.9875
X2.975Y-2.7375
X3.475Y-2.0875
X3.475Y-2.8375
X3.5266Y-2.03
X3.5266Y-2.78
X3.7234Y-2.0103
X3.7234Y-2.7603
X3.725Y-1.9875
X3.725Y-2.7375
T2
G00X1.075Y-1.8617
M15
G01X1.075Y-1.909
M16
G05
G00X1.075Y-2.0389
M15
G01X1.075Y-2.0861
M16
G05
G00X1.3625Y-1.8617
M15
G01X1.3625Y-1.909
M16
G05
G00X1.3625Y-2.0389
M15
G01X1.3625Y-2.0861
M16
G05
T0
M30
